<svg width="596.861" height="172.573" viewBox="0 0 596.861 172.573" xmlns="http://www.w3.org/2000/svg"><g id="svgGroup" stroke-linecap="round" fill-rule="evenodd" font-size="9pt" stroke="#000" stroke-width="0.25mm" fill="#000" style="stroke:#000;stroke-width:0.25mm;fill:#000"><path d="M 70.547 97.377 L 67.617 97.963 Q 63.906 98.744 60.586 100.16 A 322.476 322.476 0 0 1 53.848 102.944 A 2.039 2.039 0 0 0 52.871 102.276 A 2.477 2.477 0 0 0 52.822 102.26 Q 52.204 102.07 51.724 102.622 A 1.852 1.852 0 0 0 51.699 102.651 A 1.452 1.452 0 0 1 51.749 102.85 Q 51.786 103.058 51.794 103.353 A 6.237 6.237 0 0 1 51.797 103.53 A 23.45 23.45 0 0 1 51.787 104.219 Q 51.766 104.928 51.7 105.43 A 6.593 6.593 0 0 1 51.699 105.434 A 5.768 5.768 0 0 1 51.543 106.212 A 4.591 4.591 0 0 1 51.357 106.752 Q 51.113 107.338 50.625 107.875 A 24.207 24.207 0 0 1 50.363 108.159 Q 49.969 108.578 49.433 109.116 A 68.862 68.862 0 0 1 49.355 109.194 A 3.357 3.357 0 0 0 49.195 109.365 Q 48.565 110.09 49.438 110.162 A 2.574 2.574 0 0 0 49.648 110.17 Q 49.191 110.758 48.691 110.996 A 1.65 1.65 0 0 1 48.184 111.147 Q 47.988 111.244 47.598 111.244 A 0.831 0.831 0 0 0 47.299 111.302 A 1.021 1.021 0 0 0 47.207 111.342 A 0.222 0.222 0 0 0 47.188 111.404 Q 47.149 111.624 47.402 112.172 Q 47.642 112.691 47.751 112.916 A 7.521 7.521 0 0 0 47.793 113.002 Q 47.793 113.1 47.5 113.491 Q 47.207 113.881 46.914 114.321 A 6.155 6.155 0 0 0 46.536 114.966 A 5.361 5.361 0 0 0 46.426 115.2 Q 46.23 115.639 46.426 115.932 L 46.426 116.713 A 1.427 1.427 0 0 1 46.513 116.751 Q 46.871 116.923 46.475 117.055 A 10.98 10.98 0 0 1 46.322 117.105 Q 46.025 117.199 45.942 117.201 A 0.145 0.145 0 0 1 45.938 117.201 Q 45.854 117.201 45.482 117.526 A 10.864 10.864 0 0 0 45.352 117.641 Q 44.906 118.042 44.867 118.159 A 0.063 0.063 0 0 0 44.863 118.178 A 0.933 0.933 0 0 1 44.645 118.342 A 0.796 0.796 0 0 1 44.424 118.422 A 1.128 1.128 0 0 0 44.217 118.486 Q 44.119 118.526 44.015 118.587 A 2.328 2.328 0 0 0 43.887 118.666 A 0.087 0.087 0 0 0 43.834 118.688 Q 43.752 118.753 43.643 119.008 A 4.723 4.723 0 0 0 43.437 119.596 A 5.344 5.344 0 0 0 43.398 119.741 L 43.203 120.522 A 2.289 2.289 0 0 0 43.18 120.626 Q 43.119 120.926 43.203 121.01 Q 43.203 121.982 43.06 122.725 A 5.523 5.523 0 0 1 42.959 123.158 A 36.42 36.42 0 0 0 42.769 123.873 Q 42.687 124.193 42.6 124.552 A 72.959 72.959 0 0 0 42.422 125.307 Q 42.053 126.784 41.378 127.432 A 2.094 2.094 0 0 1 41.299 127.504 A 17.119 17.119 0 0 1 39.785 128.676 A 13.049 13.049 0 0 0 38.317 129.854 A 14.25 14.25 0 0 0 38.271 129.897 A 2.881 2.881 0 0 0 37.77 130.533 Q 37.576 130.86 37.416 131.277 A 7.633 7.633 0 0 0 37.148 132.143 Q 37.065 132.479 36.981 132.742 A 6.575 6.575 0 0 1 36.953 132.826 A 0.86 0.86 0 0 0 36.883 133.031 Q 36.855 133.159 36.855 133.315 L 36.855 133.51 A 178.118 178.118 0 0 0 36.669 133.837 Q 36.441 134.238 36.274 134.538 A 58.272 58.272 0 0 0 36.221 134.633 A 24.088 24.088 0 0 0 35.989 135.06 A 19.507 19.507 0 0 0 35.781 135.463 A 3.257 3.257 0 0 0 35.567 136.018 A 3.993 3.993 0 0 0 35.488 136.342 Q 35.391 136.83 35.391 137.514 A 0.634 0.634 0 0 1 35.479 137.726 Q 35.54 137.99 35.439 138.393 A 5.593 5.593 0 0 1 35.105 139.345 A 6.372 6.372 0 0 1 35 139.565 Q 34.707 140.151 34.365 140.737 Q 34.104 141.185 33.928 141.462 A 8.289 8.289 0 0 1 33.828 141.616 A 8.578 8.578 0 0 1 33.334 142.348 A 9.888 9.888 0 0 1 33.145 142.592 L 32.363 143.569 Q 30.313 146.401 28.945 149.135 A 45.243 45.243 0 0 1 23.965 156.948 A 39.035 39.035 0 0 1 23.342 157.656 A 50.62 50.62 0 0 1 22.646 158.412 A 7.859 7.859 0 0 0 22.017 159.169 A 5.768 5.768 0 0 0 21.523 159.975 L 21.523 160.658 Q 21.523 162.045 20.982 162.94 A 2.903 2.903 0 0 1 20.449 163.588 Q 19.375 164.565 17.813 165.444 Q 17.324 165.834 16.738 166.225 Q 16.152 166.616 15.762 167.201 A 21.178 21.178 0 0 1 15.353 167.728 Q 14.855 168.349 14.15 169.155 Q 13.465 169.937 12.846 170.415 A 4.83 4.83 0 0 1 12.246 170.815 A 2.2 2.2 0 0 1 12.142 170.811 Q 11.902 170.799 11.271 170.743 A 109.359 109.359 0 0 1 10.977 170.717 Q 10.02 170.63 9.76 170.621 A 1.498 1.498 0 0 0 9.707 170.619 A 2.352 2.352 0 0 0 9.594 170.68 Q 9.406 170.788 9.087 171 A 19.833 19.833 0 0 0 9.072 171.01 A 22.442 22.442 0 0 1 8.386 171.45 A 25.108 25.108 0 0 1 8.145 171.596 Q 7.656 171.889 7.168 172.084 A 3.555 3.555 0 0 1 7.034 172.135 Q 6.695 172.255 6.597 172.194 A 0.085 0.085 0 0 1 6.582 172.182 A 3.969 3.969 0 0 0 6.251 172.034 Q 5.909 171.9 5.65 171.89 A 1.086 1.086 0 0 0 5.605 171.889 A 0.387 0.387 0 0 0 5.455 171.922 Q 5.339 171.971 5.208 172.093 A 1.596 1.596 0 0 0 5.166 172.133 L 4.727 172.573 Q 4.11 172.418 3.736 172.386 A 2.112 2.112 0 0 0 3.555 172.377 A 0.324 0.324 0 0 1 3.442 172.353 Q 3.25 172.28 2.92 171.987 A 7.266 7.266 0 0 1 2.426 171.501 A 9.322 9.322 0 0 1 2.041 171.059 A 19.062 19.062 0 0 1 1.578 170.47 A 15.163 15.163 0 0 1 1.26 170.033 Q 0.964 169.611 0.851 169.408 A 1.509 1.509 0 0 1 0.82 169.35 Q 0.137 168.276 0.039 166.811 A 17.969 17.969 0 0 1 0 165.616 Q 0 164.701 0.088 163.735 A 33.834 33.834 0 0 1 0.527 160.561 A 59.628 59.628 0 0 1 0.784 159.268 Q 0.907 158.681 1.031 158.164 A 32.886 32.886 0 0 1 1.113 157.826 Q 1.602 155.873 1.992 153.871 Q 2.383 151.869 2.383 149.916 A 1.989 1.989 0 0 1 2.406 149.604 Q 2.433 149.435 2.491 149.298 A 0.986 0.986 0 0 1 2.578 149.135 L 2.969 148.549 Q 3.142 148.376 3.085 148.165 A 0.494 0.494 0 0 0 3.066 148.11 A 6.682 6.682 0 0 0 2.969 147.878 A 5.058 5.058 0 0 0 2.871 147.67 Q 2.773 147.377 3.066 146.498 A 21.458 21.458 0 0 1 3.396 145.583 A 28.349 28.349 0 0 1 3.799 144.594 A 59.027 59.027 0 0 1 4.458 143.111 A 52.058 52.058 0 0 1 4.678 142.641 Q 5.117 141.713 5.313 141.42 A 71.075 71.075 0 0 0 8.877 133.998 A 28.014 28.014 0 0 1 13.027 126.967 L 15.957 123.451 Q 17.422 121.694 18.789 119.741 Q 19.272 119.097 19.622 118.718 A 5.351 5.351 0 0 1 19.766 118.569 A 3.376 3.376 0 0 1 20.498 117.861 Q 20.852 117.605 21.3 117.397 A 6.189 6.189 0 0 1 21.523 117.299 A 4.686 4.686 0 0 1 22.399 117.027 Q 22.779 116.95 23.148 116.95 A 3.469 3.469 0 0 1 23.77 117.006 A 0.169 0.169 0 0 0 23.828 116.987 Q 24.011 116.903 24.656 116.449 A 35.41 35.41 0 0 0 24.697 116.42 Q 25.527 115.834 25.625 115.737 Q 26.016 114.467 26.895 113.051 A 26.989 26.989 0 0 1 27.773 111.721 A 20.507 20.507 0 0 1 28.652 110.561 A 3.059 3.059 0 0 1 29.751 109.755 A 3.901 3.901 0 0 1 30.215 109.584 A 54.662 54.662 0 0 1 31.228 109.291 A 66.381 66.381 0 0 1 32.314 108.998 A 17.39 17.39 0 0 0 34.512 108.266 A 4.496 4.496 0 0 0 35.771 107.475 A 6.033 6.033 0 0 0 36.465 106.752 A 20.141 20.141 0 0 1 37.013 106.153 Q 37.552 105.585 38.271 104.897 A 8.728 8.728 0 0 1 39.107 104.187 Q 39.797 103.676 40.469 103.432 Q 41.236 103.585 42.455 103.317 A 11.743 11.743 0 0 0 43.154 103.139 Q 44.863 102.651 45.449 101.772 Q 45.879 101.17 45.931 99.887 A 9.027 9.027 0 0 0 45.938 99.526 Q 45.938 98.787 46.505 97.699 A 9.173 9.173 0 0 1 46.572 97.573 A 45.888 45.888 0 0 1 46.874 97.023 Q 47.305 96.254 47.598 95.815 Q 48.086 95.033 48.379 94.252 L 48.965 92.69 A 6.686 6.686 0 0 0 49.154 92.156 A 5.292 5.292 0 0 0 49.258 91.762 A 41.381 41.381 0 0 0 49.355 91.31 A 48.137 48.137 0 0 0 49.453 90.834 A 0.46 0.46 0 0 0 49.501 90.774 Q 49.61 90.618 49.844 90.151 Q 50.137 89.565 50.479 88.979 A 13.595 13.595 0 0 0 50.859 88.283 A 11.019 11.019 0 0 0 51.064 87.856 A 4.448 4.448 0 0 0 51.124 87.72 Q 51.288 87.323 51.218 87.229 A 0.072 0.072 0 0 0 51.211 87.221 A 0.059 0.059 0 0 0 51.181 87.177 Q 51.078 87.101 50.625 87.026 Q 50.039 86.928 49.404 86.879 A 198.323 198.323 0 0 1 48.48 86.806 A 175.863 175.863 0 0 1 48.184 86.782 A 66.617 66.617 0 0 0 47.981 86.765 Q 47.579 86.733 47.5 86.733 A 1.492 1.492 0 0 0 47.253 86.756 Q 46.903 86.815 46.377 87.026 A 25.752 25.752 0 0 0 45.62 87.343 A 32.293 32.293 0 0 0 44.814 87.709 A 9.729 9.729 0 0 0 44.09 88.086 Q 43.757 88.278 43.477 88.481 A 5.914 5.914 0 0 0 43.398 88.539 Q 42.813 88.979 42.715 89.174 A 21.254 21.254 0 0 1 36.758 90.335 A 20.043 20.043 0 0 1 36.465 90.346 A 19.28 19.28 0 0 0 30.703 91.439 A 21.862 21.862 0 0 0 30.215 91.616 A 19.946 19.946 0 0 1 27.502 92.394 A 23.878 23.878 0 0 1 26.162 92.641 A 21.913 21.913 0 0 1 23.239 92.903 Q 22.569 92.916 21.914 92.885 A 0.338 0.338 0 0 1 21.864 92.88 Q 21.735 92.859 21.385 92.755 A 17.172 17.172 0 0 1 21.328 92.739 A 9.439 9.439 0 0 1 20.82 92.569 Q 20.549 92.471 20.254 92.348 Q 19.668 92.104 19.18 91.908 A 11.951 11.951 0 0 0 19.01 91.842 Q 18.673 91.713 18.594 91.713 Q 18.105 91.518 17.666 90.981 A 7.34 7.34 0 0 1 16.885 89.809 Q 16.543 89.174 16.25 88.539 Q 15.957 87.905 15.762 87.514 A 19.426 19.426 0 0 1 14.932 85.366 Q 14.59 84.291 14.395 83.217 Q 14.297 83.217 14.297 82.436 Q 14.297 82.073 14.212 81.794 A 1.577 1.577 0 0 0 14.199 81.752 A 50.435 50.435 0 0 1 13.87 78.969 A 67.147 67.147 0 0 1 13.662 75.893 Q 13.582 74.135 13.982 72.639 A 8.447 8.447 0 0 1 14.98 70.326 A 120.365 120.365 0 0 1 15.396 69.606 A 162.717 162.717 0 0 1 15.859 68.813 Q 16.315 68.038 16.771 67.476 A 7.627 7.627 0 0 1 16.836 67.397 A 14.125 14.125 0 0 1 17.104 67.071 Q 17.332 66.803 17.52 66.616 A 6.433 6.433 0 0 0 17.743 66.38 Q 17.848 66.263 17.963 66.127 A 14.43 14.43 0 0 0 18.203 65.834 A 0.84 0.84 0 0 1 18.288 65.701 Q 18.382 65.579 18.54 65.441 A 3.105 3.105 0 0 1 18.594 65.395 A 3.032 3.032 0 0 0 18.693 65.308 Q 18.887 65.132 18.887 65.053 Q 19.961 63.979 20.84 62.807 Q 21.719 61.635 22.5 60.463 A 4.084 4.084 0 0 1 22.641 60.266 Q 22.817 60.033 23.086 59.731 A 20.532 20.532 0 0 1 23.889 58.879 A 22.354 22.354 0 0 1 23.916 58.852 A 3.896 3.896 0 0 1 24.451 58.401 A 3.214 3.214 0 0 1 24.844 58.168 Q 25.332 57.924 25.723 58.119 L 26.65 58.119 A 4.44 4.44 0 0 1 27.248 58.161 A 5.372 5.372 0 0 1 27.578 58.217 A 26.86 26.86 0 0 1 27.859 58.677 Q 28.124 59.119 28.288 59.441 A 7.137 7.137 0 0 1 28.311 59.487 A 2.851 2.851 0 0 1 28.604 60.512 A 6.063 6.063 0 0 1 28.627 60.965 Q 28.631 61.235 28.614 61.527 A 8.746 8.746 0 0 1 28.604 61.684 A 14.749 14.749 0 0 0 28.574 62.194 Q 28.555 62.648 28.555 63.198 Q 28.066 63.588 27.48 63.979 L 26.309 64.76 Q 26.151 64.917 25.835 65.646 A 19.881 19.881 0 0 0 25.674 66.03 A 33.613 33.613 0 0 0 25.234 67.165 A 44.028 44.028 0 0 0 24.795 68.422 A 56.501 56.501 0 0 0 24.191 70.345 A 49.178 49.178 0 0 0 24.014 70.961 Q 23.672 72.182 23.574 72.475 A 18.487 18.487 0 0 1 22.303 76.125 A 22.023 22.023 0 0 1 21.572 77.553 Q 20.156 80.092 18.398 81.948 L 18.301 82.241 A 23.944 23.944 0 0 1 19.023 82.994 A 19.088 19.088 0 0 1 19.521 83.559 Q 20.059 84.194 20.645 84.78 A 8.499 8.499 0 0 0 22.891 84.487 A 27.918 27.918 0 0 0 23.849 85.219 A 30.535 30.535 0 0 0 23.916 85.268 A 4.816 4.816 0 0 1 24.769 86.056 A 4.476 4.476 0 0 1 24.844 86.147 L 27.139 86.147 A 19.37 19.37 0 0 0 28.607 86.093 A 16.811 16.811 0 0 0 29.092 86.049 A 10.124 10.124 0 0 0 30.571 85.777 A 11.628 11.628 0 0 0 30.996 85.658 Q 31.942 85.375 32.98 84.724 A 11.567 11.567 0 0 0 33.047 84.682 Q 33.341 84.535 33.858 84.193 A 24.168 24.168 0 0 0 34.219 83.95 A 5.201 5.201 0 0 1 34.591 83.715 Q 34.984 83.491 35.287 83.433 A 1.071 1.071 0 0 1 35.488 83.412 L 39.004 82.826 A 12.454 12.454 0 0 0 40.713 81.899 A 124.988 124.988 0 0 1 41.931 81.121 A 112.337 112.337 0 0 1 42.324 80.873 A 6.413 6.413 0 0 1 42.911 80.563 A 8.377 8.377 0 0 1 43.447 80.336 Q 44.082 80.092 44.57 79.897 A 17.126 17.126 0 0 0 49.447 76.629 A 16.323 16.323 0 0 0 49.795 76.283 A 198.025 198.025 0 0 1 54.336 71.791 A 29.753 29.753 0 0 0 56.818 69.12 A 35.333 35.333 0 0 0 57.9 67.739 A 29.996 29.996 0 0 0 59.706 65.031 A 24.348 24.348 0 0 0 60.684 63.198 A 43.473 43.473 0 0 1 62.029 60.255 A 48.17 48.17 0 0 1 62.246 59.828 A 20.028 20.028 0 0 1 63.547 57.64 A 17.278 17.278 0 0 1 64.199 56.752 Q 64.876 55.991 66.065 55.45 A 8.854 8.854 0 0 1 66.445 55.287 A 16.532 16.532 0 0 1 67.629 54.863 Q 68.405 54.619 69.082 54.506 A 1.338 1.338 0 0 1 69.397 54.465 Q 69.947 54.461 70.447 54.941 A 2.667 2.667 0 0 1 70.547 55.043 Q 70.986 55.514 71.143 55.965 A 1.497 1.497 0 0 1 71.23 56.459 A 23.804 23.804 0 0 1 71.258 57.207 Q 71.287 58.579 71.133 59.584 A 8.85 8.85 0 0 1 70.786 61.041 A 7.377 7.377 0 0 1 70.449 61.879 A 10.955 10.955 0 0 1 69.682 63.225 A 13.295 13.295 0 0 1 69.18 63.93 A 95.568 95.568 0 0 1 68.539 64.761 Q 68.249 65.133 67.921 65.548 A 198.386 198.386 0 0 1 67.227 66.42 L 64.98 69.35 A 0.453 0.453 0 0 0 64.958 69.402 Q 64.909 69.543 65.006 69.625 A 0.257 0.257 0 0 0 65.029 69.643 A 0.64 0.64 0 0 1 65.179 69.784 Q 65.229 69.848 65.271 69.931 A 1.077 1.077 0 0 1 65.273 69.936 A 0.418 0.418 0 0 1 65.307 70.033 Q 65.342 70.193 65.297 70.454 A 2.58 2.58 0 0 1 65.273 70.571 A 7.777 7.777 0 0 1 65.186 70.921 Q 65.134 71.114 65.067 71.329 A 14.926 14.926 0 0 1 64.98 71.596 A 22.027 22.027 0 0 1 64.785 72.158 A 17.31 17.31 0 0 1 64.59 72.67 Q 64.431 73.067 64.337 73.206 A 0.35 0.35 0 0 1 64.297 73.256 Q 64.199 73.256 64.102 73.5 A 1.301 1.301 0 0 1 63.809 73.94 L 63.418 74.526 Q 62.148 76.381 61.318 78.188 Q 60.488 79.994 60.684 82.241 A 2.993 2.993 0 0 1 60.529 83.215 A 2.697 2.697 0 0 1 60.244 83.803 A 15.598 15.598 0 0 1 59.654 84.654 A 19.33 19.33 0 0 1 59.219 85.219 A 13.413 13.413 0 0 0 58.633 86.012 A 17.95 17.95 0 0 0 58.047 86.928 A 4.688 4.688 0 0 0 57.642 87.815 Q 57.488 88.261 57.384 88.794 A 10.38 10.38 0 0 0 57.266 89.565 A 3.855 3.855 0 0 0 57.206 89.844 Q 57.181 89.989 57.172 90.118 A 1.957 1.957 0 0 0 57.168 90.248 A 1.257 1.257 0 0 1 57.164 90.35 Q 57.156 90.452 57.13 90.518 A 0.303 0.303 0 0 1 57.119 90.541 A 0.47 0.47 0 0 0 57.08 90.651 A 0.399 0.399 0 0 0 57.07 90.737 L 57.07 90.932 A 30.507 30.507 0 0 1 56.624 92.538 Q 56.4 93.263 56.159 93.892 A 16.918 16.918 0 0 1 55.996 94.301 Q 55.41 95.717 54.629 97.67 Q 54.713 97.67 55.119 97.311 A 13.133 13.133 0 0 0 55.264 97.182 A 9.389 9.389 0 0 1 55.889 96.663 A 12.541 12.541 0 0 1 56.533 96.205 A 12.098 12.098 0 0 1 58.096 95.326 A 2.418 2.418 0 0 1 58.595 95.152 Q 58.814 95.103 59.028 95.103 A 1.919 1.919 0 0 1 59.707 95.229 Q 60.293 95.424 61.074 95.375 A 7.732 7.732 0 0 0 62.588 95.131 A 64.415 64.415 0 0 0 62.939 95.037 Q 63.426 94.904 63.785 94.796 A 23.179 23.179 0 0 0 63.809 94.789 A 14.561 14.561 0 0 1 63.978 94.74 Q 64.297 94.648 64.385 94.643 A 0.168 0.168 0 0 1 64.395 94.643 L 66.055 94.643 Q 66.836 94.643 67.617 94.741 A 0.19 0.19 0 0 0 67.684 94.78 Q 67.8 94.824 68.067 94.835 A 4.652 4.652 0 0 0 68.252 94.838 A 7.206 7.206 0 0 1 68.682 94.852 Q 68.921 94.866 69.189 94.895 A 13.92 13.92 0 0 1 69.521 94.936 L 70.986 95.131 Q 71.674 95.223 72.061 95.401 A 1.677 1.677 0 0 1 72.109 95.424 A 2.596 2.596 0 0 1 72.299 95.562 Q 72.612 95.814 72.612 96.022 A 0.269 0.269 0 0 1 72.598 96.108 Q 72.522 96.335 72.3 96.561 A 2.217 2.217 0 0 1 72.158 96.694 A 2.132 2.132 0 0 1 71.591 97.039 A 2.636 2.636 0 0 1 71.328 97.133 Q 70.891 97.264 70.611 97.356 A 13.673 13.673 0 0 0 70.547 97.377 Z M 397.598 101.381 L 396.133 101.381 Q 396.23 100.112 395.889 98.696 Q 395.612 97.548 394.533 97.202 A 3.024 3.024 0 0 0 393.984 97.084 A 5.414 5.414 0 0 0 394.972 95.569 A 4.966 4.966 0 0 0 395.254 94.692 A 24.307 24.307 0 0 0 395.693 92.006 A 22.283 22.283 0 0 1 396.128 89.389 A 21.084 21.084 0 0 1 396.133 89.369 A 3.544 3.544 0 0 1 397.189 87.564 A 4.688 4.688 0 0 1 397.598 87.221 Q 396.628 85.928 396.628 84.601 A 3.694 3.694 0 0 1 396.67 84.047 A 10.021 10.021 0 0 1 397.364 81.633 A 11.952 11.952 0 0 1 397.744 80.825 Q 398.574 79.213 399.502 77.602 A 7.123 7.123 0 0 0 400.226 75.876 A 5.997 5.997 0 0 0 400.43 74.33 A 5.657 5.657 0 0 1 399.444 73.486 A 7.449 7.449 0 0 1 398.818 72.719 A 1.904 1.904 0 0 0 398.448 72.324 Q 397.803 71.817 396.853 72.168 A 2.982 2.982 0 0 0 396.816 72.182 A 142.185 142.185 0 0 1 391.543 77.016 A 117.704 117.704 0 0 0 386.416 81.752 Q 383.926 84.194 381.729 86.879 Q 379.531 89.565 377.676 92.787 A 4.232 4.232 0 0 0 376.373 93.231 A 3.569 3.569 0 0 0 375.137 94.35 Q 374.258 95.619 373.574 97.035 A 23.837 23.837 0 0 1 372.061 99.721 A 3.836 3.836 0 0 1 369.766 101.381 Q 369.277 102.944 368.74 104.555 Q 368.203 106.166 367.715 107.729 Q 367.278 107.51 366.65 107.346 A 9.525 9.525 0 0 0 366.201 107.241 A 16.377 16.377 0 0 1 364.395 106.752 A 7.516 7.516 0 0 1 363.42 106.353 A 6.181 6.181 0 0 1 362.832 106.02 A 2.314 2.314 0 0 1 362.342 105.606 A 1.816 1.816 0 0 1 361.953 104.897 A 0.451 0.451 0 0 1 361.92 104.802 Q 361.872 104.605 361.896 104.194 A 6.448 6.448 0 0 1 361.904 104.067 Q 361.944 103.548 361.951 103.323 A 2.722 2.722 0 0 0 361.953 103.237 A 13.24 13.24 0 0 1 363.369 98.11 A 81.731 81.731 0 0 1 365.957 93.422 Q 367.324 91.127 368.496 88.783 A 12.181 12.181 0 0 0 369.724 84.308 A 14.308 14.308 0 0 0 369.766 83.608 A 3.752 3.752 0 0 0 370.432 83.553 Q 371.34 83.389 371.67 82.729 Q 372.109 81.85 372.354 80.873 A 9.42 9.42 0 0 1 372.675 79.837 A 7.612 7.612 0 0 1 372.988 79.116 A 1.06 1.06 0 0 1 373.679 78.561 Q 374.104 78.438 374.742 78.529 A 4.565 4.565 0 0 1 374.746 78.53 Q 373.993 77.525 373.993 76.341 A 3.882 3.882 0 0 1 374.014 75.942 A 9.958 9.958 0 0 1 374.606 73.464 A 11.336 11.336 0 0 1 374.746 73.11 A 15.845 15.845 0 0 1 376.211 70.375 Q 376.966 69.242 377.505 68.29 A 22.677 22.677 0 0 0 377.676 67.983 Q 377.578 66.616 377.92 65.248 Q 378.262 63.881 379.141 62.807 A 38.124 38.124 0 0 0 380.068 61.629 A 30.326 30.326 0 0 0 380.703 60.756 A 55.377 55.377 0 0 0 381.899 58.972 A 61.109 61.109 0 0 0 382.07 58.705 A 4.45 4.45 0 0 0 382.705 57.631 A 8.695 8.695 0 0 1 383.064 56.872 A 7.393 7.393 0 0 1 383.242 56.557 Q 384.121 55.287 384.414 53.871 Q 384.707 52.455 385.049 51.039 A 10.528 10.528 0 0 1 385.588 49.389 A 8.799 8.799 0 0 1 386.025 48.5 Q 386.557 47.56 387.807 46.928 A 7.278 7.278 0 0 1 388.32 46.694 Q 388.32 45.619 388.662 44.692 A 73.348 73.348 0 0 1 389.298 43.031 A 80.436 80.436 0 0 1 389.395 42.787 A 75.069 75.069 0 0 0 390.041 41.116 A 68.38 68.38 0 0 0 390.127 40.883 A 5.626 5.626 0 0 0 390.46 39.217 A 6.543 6.543 0 0 0 390.469 38.881 A 3.097 3.097 0 0 1 390.781 38.454 Q 390.955 38.252 391.179 38.05 A 5.805 5.805 0 0 1 391.348 37.905 A 16.728 16.728 0 0 0 392.139 37.203 A 14.406 14.406 0 0 0 392.422 36.928 Q 392.91 36.44 393.203 35.903 Q 393.445 35.46 393.354 34.85 A 2.79 2.79 0 0 0 393.301 34.584 A 13.443 13.443 0 0 0 393.34 33.553 A 15.067 15.067 0 0 0 393.252 31.948 A 3.591 3.591 0 0 1 393.231 31.565 A 2.838 2.838 0 0 1 393.984 29.604 Q 393.789 28.334 394.326 27.553 A 5.832 5.832 0 0 1 395.645 26.186 A 16.656 16.656 0 0 1 396.899 25.334 A 19.176 19.176 0 0 1 397.354 25.063 A 8.164 8.164 0 0 0 398.502 24.265 A 7.027 7.027 0 0 0 398.965 23.842 A 1.568 1.568 0 0 1 398.66 22.911 Q 398.66 22.718 398.705 22.513 A 2.306 2.306 0 0 1 398.77 22.28 Q 399.063 21.401 399.6 20.571 Q 400.137 19.741 400.82 18.959 Q 401.265 18.451 401.545 18.025 A 4.299 4.299 0 0 0 401.797 17.592 A 24.397 24.397 0 0 0 402.822 15.248 A 15.201 15.201 0 0 1 403.775 13.18 A 14.023 14.023 0 0 1 403.848 13.051 A 9.973 9.973 0 0 1 405.264 11.147 A 5.637 5.637 0 0 1 406.332 10.273 A 7.779 7.779 0 0 1 407.461 9.682 A 8.324 8.324 0 0 1 407.359 9.055 Q 407.176 7.55 407.705 6.655 A 5.777 5.777 0 0 1 409.059 5.102 A 6.882 6.882 0 0 1 409.463 4.799 A 33.089 33.089 0 0 1 411.54 3.469 A 36.71 36.71 0 0 1 411.855 3.285 A 5.46 5.46 0 0 0 413.755 1.437 A 6.534 6.534 0 0 0 413.906 1.186 Q 414.98 0.893 416.25 0.551 Q 417.52 0.209 418.789 0.063 A 9.333 9.333 0 0 1 419.859 0 A 8.327 8.327 0 0 1 421.23 0.112 A 4.079 4.079 0 0 1 423.006 0.88 A 5.07 5.07 0 0 1 423.379 1.186 L 423.867 1.674 A 0.859 0.859 0 0 1 423.905 1.714 Q 423.958 1.774 423.964 1.811 A 0.057 0.057 0 0 1 423.965 1.821 A 0.178 0.178 0 0 0 423.967 1.847 Q 423.974 1.892 424.002 1.979 A 2.681 2.681 0 0 0 424.014 2.016 Q 424.054 2.136 424.325 2.422 A 7.182 7.182 0 0 0 424.453 2.553 A 16.287 16.287 0 0 0 425.137 3.199 A 14.837 14.837 0 0 0 425.234 3.285 A 5.673 5.673 0 0 1 425.649 3.69 A 7.507 7.507 0 0 1 426.016 4.116 A 4.92 4.92 0 0 1 426.061 4.649 Q 426.073 5.007 426.039 5.399 A 7.571 7.571 0 0 1 426.016 5.629 A 13.967 13.967 0 0 0 425.919 7.044 A 12.647 12.647 0 0 0 425.918 7.241 A 4.432 4.432 0 0 0 426.064 8.391 A 4.041 4.041 0 0 0 426.162 8.705 Q 426.37 9.287 427.109 9.586 A 3.127 3.127 0 0 0 427.383 9.682 A 19.629 19.629 0 0 0 426.705 14.15 Q 426.688 14.584 426.688 15.025 A 23.484 23.484 0 0 0 426.699 15.737 Q 426.797 18.959 426.797 22.231 A 39.994 39.994 0 0 1 426.423 27.769 A 36.471 36.471 0 0 1 426.309 28.53 A 10.565 10.565 0 0 1 423.77 33.901 L 423.086 38.881 Q 422.303 38.941 421.817 39.243 A 1.58 1.58 0 0 0 421.328 39.711 A 4.46 4.46 0 0 0 420.782 40.876 A 5.485 5.485 0 0 0 420.645 41.42 A 32.593 32.593 0 0 0 420.379 42.94 A 37 37 0 0 0 420.303 43.471 A 4.009 4.009 0 0 1 420.096 44.322 A 2.953 2.953 0 0 1 419.57 45.229 A 19.577 19.577 0 0 0 418.789 46.279 A 25.481 25.481 0 0 0 418.008 47.475 A 21.795 21.795 0 0 1 416.62 49.478 A 19.633 19.633 0 0 1 416.348 49.819 Q 415.469 50.893 414.346 51.625 A 4.527 4.527 0 0 1 412.163 52.343 A 5.588 5.588 0 0 1 411.758 52.358 Q 411.627 52.751 411.319 53.233 A 7.975 7.975 0 0 1 410.977 53.725 A 14.07 14.07 0 0 1 409.749 55.147 A 15.435 15.435 0 0 1 409.658 55.239 A 11.162 11.162 0 0 1 408.532 56.227 A 9.809 9.809 0 0 1 408.145 56.508 Q 407.363 57.045 406.777 57.241 A 13.955 13.955 0 0 1 406.122 57.469 Q 405.794 57.573 405.497 57.647 A 8.065 8.065 0 0 1 405.361 57.68 A 3.491 3.491 0 0 0 404.821 57.855 Q 404.564 57.961 404.286 58.114 A 7.153 7.153 0 0 0 403.945 58.315 A 9.009 9.009 0 0 0 402.902 58.998 A 11.427 11.427 0 0 0 402.188 59.584 A 12.37 12.37 0 0 1 400.332 60.951 A 6.968 6.968 0 0 1 398.281 61.782 Q 397.207 62.026 396.133 61.537 A 6.406 6.406 0 0 1 395.09 62.571 A 4.508 4.508 0 0 1 393.252 63.442 Q 391.641 63.783 390.127 63.93 Q 388.613 64.076 387.295 64.614 Q 385.977 65.151 385.293 67.006 Q 385.145 67.154 385.025 67.556 A 4.556 4.556 0 0 0 384.951 67.836 Q 384.805 68.471 384.805 68.666 A 30.171 30.171 0 0 1 384.791 69.541 Q 384.768 70.326 384.707 71.303 A 4.935 4.935 0 0 0 384.697 71.57 Q 384.686 72.934 385.488 73.647 A 42.007 42.007 0 0 0 392.178 69.692 A 35.792 35.792 0 0 1 398.965 65.834 L 399.648 66.616 A 4.553 4.553 0 0 1 399.837 65.777 Q 400.283 64.456 401.504 64.418 Q 403.066 64.369 404.727 64.467 L 405.41 64.467 A 1.327 1.327 0 0 0 405.572 64.458 Q 405.657 64.447 405.731 64.425 A 0.789 0.789 0 0 0 405.752 64.418 A 0.907 0.907 0 0 1 405.911 64.382 Q 405.985 64.371 406.07 64.37 A 1.526 1.526 0 0 1 406.094 64.369 A 3.584 3.584 0 0 1 407.014 64.479 Q 408.109 64.77 408.535 65.834 Q 409.121 67.299 409.609 68.666 A 8.687 8.687 0 0 0 408.132 70.909 A 10.156 10.156 0 0 0 407.9 71.45 A 45.082 45.082 0 0 0 406.796 74.599 A 49.358 49.358 0 0 0 406.729 74.819 Q 406.191 76.576 405.557 78.285 Q 404.922 79.994 403.848 81.459 Q 404.727 81.948 404.629 82.533 A 5.263 5.263 0 0 1 404.332 83.596 A 5.886 5.886 0 0 1 404.287 83.705 A 2.343 2.343 0 0 0 404.151 84.143 Q 404.08 84.495 404.141 84.828 A 0.638 0.638 0 0 0 404.346 85.179 Q 404.563 85.384 405.001 85.538 A 4.609 4.609 0 0 0 405.41 85.658 A 4.171 4.171 0 0 0 404.701 86.277 A 3.05 3.05 0 0 0 404.092 87.27 A 16.902 16.902 0 0 0 403.568 88.968 A 18.65 18.65 0 0 0 403.506 89.223 A 28.753 28.753 0 0 1 403.077 90.825 A 25.492 25.492 0 0 1 402.969 91.176 A 3.107 3.107 0 0 1 402.211 92.419 A 4.049 4.049 0 0 1 401.797 92.787 A 14.522 14.522 0 0 1 402.265 93.973 A 12.396 12.396 0 0 1 402.432 94.496 Q 402.635 95.188 402.533 96.049 A 5.705 5.705 0 0 1 402.48 96.401 A 7.895 7.895 0 0 0 403.253 97.266 Q 404.246 98.213 405.264 98.354 A 6.862 6.862 0 0 0 406.202 98.419 A 6.684 6.684 0 0 0 408.047 98.158 A 164.151 164.151 0 0 1 410.514 97.475 A 180.543 180.543 0 0 1 410.879 97.377 Q 412.124 97.045 413.44 97.419 A 5.982 5.982 0 0 1 413.906 97.573 A 62.121 62.121 0 0 1 415.023 96.831 Q 416.876 95.632 417.715 95.326 A 66.565 66.565 0 0 1 418.224 95.143 Q 418.948 94.887 419.424 94.741 A 2.971 2.971 0 0 0 419.878 94.554 Q 420.322 94.331 420.86 93.921 A 10.229 10.229 0 0 0 420.938 93.862 A 12.772 12.772 0 0 0 421.397 93.483 Q 422.35 92.665 424.258 90.834 Q 426.699 90.151 428.604 88.588 A 20.377 20.377 0 0 1 432.754 85.951 A 63.765 63.765 0 0 1 431.367 88.753 Q 430.065 91.219 428.848 92.885 A 20.735 20.735 0 0 1 426.089 95.984 A 18.137 18.137 0 0 1 424.697 97.133 A 25.594 25.594 0 0 1 422.17 98.781 Q 420.834 99.55 419.28 100.261 A 41.156 41.156 0 0 1 419.18 100.307 A 1246.743 1246.743 0 0 0 417.465 101.088 Q 414.918 102.251 411.556 103.796 A 3516.897 3516.897 0 0 0 411.074 104.018 A 10.656 10.656 0 0 0 408.829 103.697 Q 408.039 103.672 407.266 103.774 A 50.277 50.277 0 0 1 404.565 104.058 A 43.961 43.961 0 0 1 403.701 104.116 A 10.807 10.807 0 0 1 403.085 104.133 A 9.759 9.759 0 0 1 400.43 103.774 Q 398.867 103.334 397.598 101.381 Z M 237.637 95.326 L 236.758 94.838 A 0.289 0.289 0 0 0 236.69 94.816 Q 236.479 94.77 235.893 94.849 A 11.541 11.541 0 0 0 235.635 94.887 Q 234.707 95.033 233.486 95.473 A 10.82 10.82 0 0 0 231.535 96.413 A 12.371 12.371 0 0 0 231.094 96.694 A 5.631 5.631 0 0 0 229.238 98.744 L 228.848 98.647 Q 227.383 98.256 225.869 98.5 Q 224.355 98.744 222.891 98.744 Q 219.766 98.94 218.301 97.817 Q 216.836 96.694 215.176 93.569 Q 214.785 92.885 214.492 92.104 Q 214.199 91.323 214.004 90.541 L 214.004 90.151 Q 215.371 89.369 215.469 88.051 Q 215.554 86.898 215.415 85.632 A 15.746 15.746 0 0 0 215.371 85.268 Q 215.176 83.803 215.127 82.436 A 3.305 3.305 0 0 1 215.125 82.318 Q 215.125 81.03 216.152 80.19 A 4.114 4.114 0 0 1 215.929 79.336 Q 215.777 78.288 216.25 77.31 A 4.043 4.043 0 0 1 216.299 77.211 A 197.526 197.526 0 0 1 217.019 75.832 A 169.912 169.912 0 0 1 217.715 74.526 A 6.261 6.261 0 0 0 218.181 73.438 A 4.5 4.5 0 0 0 218.398 72.084 Q 218.398 71.122 216.951 70.095 A 10.002 10.002 0 0 0 216.25 69.643 Q 214.004 70.522 212.002 71.84 A 145.756 145.756 0 0 0 207.998 74.575 A 296.531 296.531 0 0 1 203.994 77.358 A 21.222 21.222 0 0 1 199.746 79.604 Q 197.695 81.85 195.449 83.461 A 73.586 73.586 0 0 0 191.104 86.83 Q 189.004 88.588 187.295 90.785 A 13.629 13.629 0 0 0 185.577 93.712 A 18.143 18.143 0 0 0 184.707 96.205 A 3.791 3.791 0 0 0 184.371 95.849 Q 184.051 95.552 183.73 95.424 A 6.564 6.564 0 0 0 183.36 95.29 Q 183.167 95.226 182.942 95.162 A 15.255 15.255 0 0 0 182.461 95.033 A 9.916 9.916 0 0 1 181.903 94.865 Q 181.39 94.692 181.063 94.503 A 2.248 2.248 0 0 1 180.898 94.399 Q 180.457 94.09 179.777 93.502 A 31.469 31.469 0 0 1 179.629 93.373 L 179.727 93.178 A 64.639 64.639 0 0 1 181.471 88.701 A 71.969 71.969 0 0 1 181.777 88.002 A 13.542 13.542 0 0 0 182.811 84.542 A 11.986 11.986 0 0 0 182.949 82.729 A 8.573 8.573 0 0 0 182.88 81.621 A 6.999 6.999 0 0 0 182.754 80.922 A 7.303 7.303 0 0 1 182.586 79.827 A 8.986 8.986 0 0 1 182.559 79.116 A 9.179 9.179 0 0 1 182.785 77.045 A 7.858 7.858 0 0 1 183.145 75.893 A 21.719 21.719 0 0 1 184.193 73.641 A 19.5 19.5 0 0 1 184.463 73.158 A 65.742 65.742 0 0 0 185.67 70.974 A 59.756 59.756 0 0 0 185.83 70.668 Q 186.465 69.448 186.465 68.08 A 5.009 5.009 0 0 0 186.143 66.335 A 5.981 5.981 0 0 0 185.977 65.932 A 6.368 6.368 0 0 0 184.99 64.38 A 5.905 5.905 0 0 0 184.707 64.076 A 7.91 7.91 0 0 0 184.181 64.059 Q 183.158 64.059 182.235 64.334 A 6.328 6.328 0 0 0 181.973 64.418 Q 180.703 64.858 179.434 65.444 Q 178.164 66.03 176.797 66.469 A 7.642 7.642 0 0 1 174.585 66.827 Q 174.507 66.829 174.429 66.829 A 9.004 9.004 0 0 1 173.867 66.811 Q 171.816 68.862 169.668 70.864 A 474.671 474.671 0 0 1 165.371 74.819 Q 160.879 78.823 156.631 83.119 Q 152.383 87.416 149.844 92.885 A 17.898 17.898 0 0 0 149.014 95.082 A 17.898 17.898 0 0 1 148.184 97.28 A 0.433 0.433 0 0 1 148.135 97.475 Q 148.103 97.539 148.05 97.603 A 0.971 0.971 0 0 1 147.988 97.67 L 147.5 97.67 Q 146.93 97.67 146.566 97.835 A 1.032 1.032 0 0 0 146.084 98.256 A 4.112 4.112 0 0 0 145.669 99.261 A 4.844 4.844 0 0 0 145.596 99.575 A 18.011 18.011 0 0 1 145.254 100.991 A 1.323 1.323 0 0 1 145.021 101.458 Q 144.786 101.752 144.375 101.869 A 1.819 1.819 0 0 1 143.933 101.925 Q 143.384 101.925 142.861 101.576 Q 142.193 101.131 141.728 100.686 A 5.709 5.709 0 0 1 141.641 100.6 L 141.543 100.502 Q 140.566 98.94 140.469 97.28 A 10.251 10.251 0 0 1 140.451 96.678 A 10.102 10.102 0 0 1 140.811 94.008 A 15.298 15.298 0 0 1 141.978 91.03 A 16.893 16.893 0 0 1 142.08 90.834 A 118.652 118.652 0 0 1 142.898 89.321 A 99.628 99.628 0 0 1 143.691 87.905 A 57.958 57.958 0 0 0 145.889 83.657 A 10.839 10.839 0 0 0 146.914 79.018 Q 146.914 77.961 146.678 77.141 A 4.97 4.97 0 0 0 146.67 77.114 A 26.193 26.193 0 0 1 146.23 75.405 L 148.379 73.94 Q 148.064 73.498 147.932 73.118 A 1.684 1.684 0 0 1 147.842 72.719 A 5.798 5.798 0 0 1 147.817 72.194 A 5.028 5.028 0 0 1 147.842 71.694 A 91.933 91.933 0 0 1 147.891 71.218 A 78.637 78.637 0 0 1 147.939 70.766 Q 147.988 70.326 147.793 69.838 L 147.793 69.545 L 148.574 68.666 A 108.047 108.047 0 0 1 148.406 64.791 A 88.677 88.677 0 0 1 148.379 62.612 Q 148.379 59.78 147.207 56.655 Q 148.574 55.385 149.844 56.02 A 33.043 33.043 0 0 1 152.383 57.436 L 152.383 57.533 L 152.48 57.631 A 10.776 10.776 0 0 1 153.213 58.925 Q 153.555 59.633 153.848 60.463 A 23.559 23.559 0 0 1 154.775 63.93 Q 155.117 65.737 155.313 67.494 Q 155.508 69.252 155.508 70.619 A 5.56 5.56 0 0 1 155.489 71.089 A 4.62 4.62 0 0 1 155.459 71.352 A 4.837 4.837 0 0 0 155.417 71.798 A 5.826 5.826 0 0 0 155.41 72.084 L 154.824 72.67 A 15.417 15.417 0 0 0 155.594 73.387 A 17.894 17.894 0 0 0 155.898 73.647 A 1.872 1.872 0 0 0 156.337 73.924 Q 156.732 74.1 157.168 74.037 A 5.261 5.261 0 0 1 157.598 73.063 Q 157.916 72.514 158.343 72.158 A 2.704 2.704 0 0 1 159.023 71.742 A 14.959 14.959 0 0 1 161.611 70.912 A 10.494 10.494 0 0 0 162.993 70.509 A 8.322 8.322 0 0 0 163.955 70.082 A 1.716 1.716 0 0 0 164.755 69.167 Q 164.887 68.841 164.942 68.424 A 4.915 4.915 0 0 0 164.98 67.787 A 2.514 2.514 0 0 0 164.973 67.583 Q 164.956 67.38 164.904 67.248 A 0.605 0.605 0 0 0 164.883 67.201 L 165.078 67.006 A 56.556 56.556 0 0 1 169.975 62.632 A 51.45 51.45 0 0 1 170.693 62.075 A 21.77 21.77 0 0 1 175.179 59.41 A 19.639 19.639 0 0 1 176.748 58.803 A 17.289 17.289 0 0 1 182.329 57.894 A 18.838 18.838 0 0 1 183.389 57.924 Q 186.612 58.106 190.299 59.807 A 28.661 28.661 0 0 1 190.859 60.073 L 191.055 60.17 L 192.129 64.174 L 191.445 64.858 A 4.144 4.144 0 0 1 192.227 67.326 Q 192.227 67.627 192.189 67.941 A 5.707 5.707 0 0 1 192.178 68.032 A 19.513 19.513 0 0 1 191.348 71.596 Q 190.762 73.354 190.273 74.867 Q 189.945 75.884 190.102 76.527 A 1.278 1.278 0 0 0 190.371 77.065 A 1.306 1.306 0 0 0 191.004 77.531 Q 191.438 77.69 192.076 77.657 A 4.682 4.682 0 0 0 192.178 77.651 A 75.321 75.321 0 0 0 192.803 77.602 Q 193.414 77.551 193.882 77.501 A 23.371 23.371 0 0 0 194.277 77.455 A 5.796 5.796 0 0 1 195.357 76.34 A 7.898 7.898 0 0 1 196.475 75.6 A 58.609 58.609 0 0 1 199.307 74.135 Q 200.723 73.451 201.797 72.719 A 3.981 3.981 0 0 0 202.324 72.295 Q 202.589 72.039 202.746 71.767 A 1.675 1.675 0 0 0 202.969 71.108 Q 204.531 71.401 205.508 70.961 Q 206.484 70.522 207.07 69.643 A 15.002 15.002 0 0 0 208.005 68.024 A 16.785 16.785 0 0 0 208.145 67.739 A 14.469 14.469 0 0 1 209.268 65.785 A 4.209 4.209 0 0 1 210.879 64.369 A 3.073 3.073 0 0 1 211.609 64.119 Q 212.411 63.947 213.516 64.076 A 13.417 13.417 0 0 1 218.838 60.805 A 21.661 21.661 0 0 1 225.039 59.682 A 6.542 6.542 0 0 1 225.323 59.676 Q 226.725 59.676 227.55 60.315 A 2.578 2.578 0 0 1 228.164 61 A 5.777 5.777 0 0 1 228.948 63.146 A 7.635 7.635 0 0 1 229.043 64.369 Q 229.043 66.908 227.871 69.252 A 69.065 69.065 0 0 1 225.948 72.823 A 78.21 78.21 0 0 1 225.234 74.037 A 46.813 46.813 0 0 0 222.598 79.116 Q 221.426 81.752 221.426 84.975 L 221.426 86 A 11.072 11.072 0 0 0 221.523 87.465 A 15.861 15.861 0 0 0 221.665 88.343 A 13.122 13.122 0 0 0 221.768 88.832 A 2.782 2.782 0 0 0 221.85 89.122 Q 221.987 89.516 222.207 89.662 A 7.341 7.341 0 0 0 222.486 89.795 Q 222.625 89.857 222.748 89.904 A 3.544 3.544 0 0 0 222.891 89.955 L 222.402 90.346 A 28.907 28.907 0 0 1 224.511 90.697 A 21.117 21.117 0 0 1 226.406 91.176 A 4.681 4.681 0 0 0 227.782 91.38 Q 228.466 91.38 229.19 91.19 A 7.323 7.323 0 0 0 230.215 90.834 Q 230.801 90.639 231.436 90.541 Q 232.07 90.444 232.656 90.248 A 1.977 1.977 0 0 0 233.053 90.166 Q 233.584 89.992 233.73 89.516 A 3.118 3.118 0 0 1 234.033 88.844 Q 234.199 88.564 234.432 88.284 A 5.242 5.242 0 0 1 234.463 88.246 A 3.037 3.037 0 0 1 234.937 87.803 Q 235.439 87.419 236.221 87.075 Q 237.202 86.643 239.223 86.558 A 25.126 25.126 0 0 1 240.273 86.537 L 240.273 84.975 Q 242.227 84.389 243.594 83.461 A 53.517 53.517 0 0 1 245.617 82.152 A 47.788 47.788 0 0 1 246.279 81.752 A 10.409 10.409 0 0 1 248.713 80.712 A 11.933 11.933 0 0 1 249.209 80.58 A 6.775 6.775 0 0 1 250.174 80.423 Q 251.502 80.299 253.262 80.58 A 37.459 37.459 0 0 1 252.783 80.998 Q 252.114 81.573 251.181 82.33 A 125.876 125.876 0 0 1 250.869 82.582 A 13.473 13.473 0 0 0 250.099 83.25 Q 249.357 83.947 248.991 84.555 A 3.281 3.281 0 0 0 248.867 84.78 Q 248.396 85.565 248.082 86.225 A 10.987 10.987 0 0 0 247.939 86.537 A 6.639 6.639 0 0 1 247.585 87.237 A 4.858 4.858 0 0 1 247.158 87.856 A 2.685 2.685 0 0 1 246.375 88.502 A 3.383 3.383 0 0 1 245.986 88.686 Q 245.261 88.976 244.01 88.979 A 10.932 10.932 0 0 1 243.984 88.979 A 0.36 0.36 0 0 1 243.936 89.136 Q 243.762 89.473 242.959 90.2 A 162.242 162.242 0 0 1 241.897 91.152 A 193.852 193.852 0 0 1 240.762 92.153 A 79.313 79.313 0 0 0 239.639 93.154 A 63.821 63.821 0 0 0 238.613 94.106 A 13.297 13.297 0 0 0 238.281 94.431 Q 237.637 95.088 237.637 95.326 Z M 491.25 84.487 L 494.863 74.721 A 18.898 18.898 0 0 1 490.273 69.496 Q 488.516 66.518 485.977 63.979 A 4.281 4.281 0 0 1 484.99 64.961 A 5.069 5.069 0 0 1 484.707 65.151 A 1.317 1.317 0 0 0 484.264 65.59 Q 483.998 66.035 484.121 66.713 L 485.098 67.592 A 88.208 88.208 0 0 0 481.152 72.221 A 109.713 109.713 0 0 0 478.604 75.551 A 45.752 45.752 0 0 0 475.105 81.054 A 37.884 37.884 0 0 0 473.477 84.487 A 7.463 7.463 0 0 0 473.182 84.479 Q 471.267 84.468 470.449 85.512 A 10.63 10.63 0 0 0 469.135 87.702 A 12.041 12.041 0 0 0 468.984 88.051 A 11.829 11.829 0 0 1 467.52 90.639 A 2.399 2.399 0 0 1 466.165 91.523 Q 465.559 91.683 464.771 91.63 A 6.51 6.51 0 0 1 464.59 91.616 A 51.513 51.513 0 0 0 463.918 93.162 A 60.514 60.514 0 0 0 463.613 93.91 Q 463.125 95.131 462.441 96.205 A 6.789 6.789 0 0 1 460.781 98.012 A 3.588 3.588 0 0 1 459.289 98.658 A 4.978 4.978 0 0 1 458.34 98.744 Q 457.559 97.963 457.461 97.084 A 4.004 4.004 0 0 1 457.437 96.642 Q 457.437 96.101 457.58 95.543 A 5.107 5.107 0 0 1 457.656 95.278 A 11.077 11.077 0 0 1 458.29 93.712 A 12.465 12.465 0 0 1 458.438 93.422 A 8.074 8.074 0 0 0 458.894 92.395 A 6.423 6.423 0 0 0 459.121 91.616 A 12.681 12.681 0 0 1 461.953 86.489 L 466.055 81.899 Q 468.105 79.604 469.57 77.065 A 9.146 9.146 0 0 0 470.733 73.386 Q 470.791 72.819 470.791 72.223 A 13.055 13.055 0 0 0 470.742 71.108 Q 472.012 71.01 473.33 70.571 A 10.561 10.561 0 0 0 475.771 69.399 Q 476.895 68.666 477.529 67.543 A 3.754 3.754 0 0 0 477.984 66.111 Q 478.043 65.605 477.989 65.04 A 6.256 6.256 0 0 0 477.969 64.858 Q 477.188 64.467 477.09 63.735 A 5.628 5.628 0 0 1 477.041 62.99 A 6.197 6.197 0 0 1 477.09 62.221 Q 479.238 61.537 480.557 59.828 Q 481.875 58.119 482.949 56.166 A 151.856 151.856 0 0 0 485.049 52.211 Q 486.074 50.209 487.734 48.744 A 21.28 21.28 0 0 0 490.084 49.907 A 19.239 19.239 0 0 0 490.469 50.063 A 12.936 12.936 0 0 1 493.105 51.479 Q 492.227 52.651 492.031 53.725 A 12.259 12.259 0 0 0 491.836 55.922 L 491.836 58.119 A 4.43 4.43 0 0 1 491.64 59.394 A 6.075 6.075 0 0 1 491.25 60.366 A 12.702 12.702 0 0 1 493.887 63.588 Q 494.961 65.444 496.621 66.713 Q 497.793 65.834 499.258 65.785 A 44.335 44.335 0 0 1 500.735 65.761 A 46.569 46.569 0 0 1 502.236 65.785 A 15.523 15.523 0 0 0 502.737 65.794 Q 503.978 65.794 505.117 65.59 Q 506.484 65.346 507.363 63.979 Q 507.754 64.369 508.535 64.369 L 510.098 64.369 A 4.237 4.237 0 0 1 510.766 64.42 A 3.072 3.072 0 0 1 511.465 64.614 A 1.055 1.055 0 0 1 512.092 65.291 A 1.507 1.507 0 0 1 512.148 65.541 A 5.868 5.868 0 0 1 512.172 65.765 Q 512.224 66.366 512.1 66.616 A 2.435 2.435 0 0 0 512.023 66.786 Q 511.943 66.983 511.851 67.279 A 13.573 13.573 0 0 0 511.758 67.592 Q 511.563 68.373 511.66 68.373 A 0.022 0.022 0 0 1 511.682 68.393 Q 511.705 68.477 511.525 68.913 A 10.272 10.272 0 0 1 511.465 69.057 Q 510.977 70.326 509.854 71.205 A 102.496 102.496 0 0 1 507.607 72.914 A 13.897 13.897 0 0 0 505.557 74.77 Q 504.629 75.795 504.629 77.358 Q 502.894 77.989 501.987 79.097 A 4.231 4.231 0 0 0 501.602 79.653 A 9.351 9.351 0 0 0 500.586 82.256 A 11.075 11.075 0 0 0 500.43 83.071 Q 500.137 84.975 500.039 86.977 A 13.931 13.931 0 0 1 499.751 89.234 A 11.487 11.487 0 0 1 499.355 90.639 L 500.234 91.616 L 501.016 90.639 A 7.255 7.255 0 0 0 502.141 91.92 A 5.133 5.133 0 0 0 504.287 93.08 A 11.209 11.209 0 0 0 507.082 93.429 A 12.229 12.229 0 0 0 508.242 93.373 A 8.846 8.846 0 0 1 509.587 91.78 A 7.609 7.609 0 0 1 510.537 91.03 A 14.568 14.568 0 0 1 513.369 89.565 Q 514.883 88.979 516.494 88.491 A 23.115 23.115 0 0 0 519.57 87.319 A 12.297 12.297 0 0 0 520.657 86.708 A 9.128 9.128 0 0 0 521.572 86.049 A 47.109 47.109 0 0 0 522.439 85.317 A 63.589 63.589 0 0 0 523.379 84.487 A 811.67 811.67 0 0 1 529.189 79.116 A 811.67 811.67 0 0 0 535 73.744 A 0.888 0.888 0 0 1 535.328 73.802 Q 535.565 73.895 535.7 74.141 A 1.146 1.146 0 0 1 535.781 74.33 Q 535.977 74.916 535.977 75.649 A 22.015 22.015 0 0 1 535.928 77.114 A 34.569 34.569 0 0 0 535.906 77.458 Q 535.885 77.83 535.88 78.089 A 7.797 7.797 0 0 0 535.879 78.237 A 9.31 9.31 0 0 0 534.576 78.985 Q 533.38 79.817 532.852 80.873 A 16.807 16.807 0 0 0 531.631 84.096 A 24.226 24.226 0 0 1 530.557 87.27 Q 529.922 88.783 527.871 89.76 A 4.526 4.526 0 0 1 527.387 90.906 A 3.324 3.324 0 0 1 525.967 92.201 A 27.131 27.131 0 0 1 522.988 93.422 Q 521.426 93.959 520.205 94.838 Q 518.984 95.717 518.984 97.866 Q 517.031 98.94 514.736 99.819 Q 512.441 100.698 509.951 101.137 A 23.223 23.223 0 0 1 505.909 101.497 A 22.251 22.251 0 0 1 505.02 101.479 A 13.445 13.445 0 0 1 500.43 100.502 A 14.322 14.322 0 0 1 497.952 99.015 A 16.159 16.159 0 0 1 497.598 98.744 A 7.999 7.999 0 0 0 497.136 98.4 Q 496.904 98.241 496.684 98.118 A 4.887 4.887 0 0 0 496.67 98.11 A 3.27 3.27 0 0 1 496.29 97.86 Q 496.108 97.722 495.917 97.546 A 6.361 6.361 0 0 1 495.742 97.377 Q 494.57 96.205 493.789 94.643 A 18.439 18.439 0 0 1 492.52 91.323 Q 492.031 89.565 491.738 87.807 A 88.426 88.426 0 0 1 491.41 85.686 A 73.378 73.378 0 0 1 491.25 84.487 Z M 314.297 94.057 L 314.297 93.959 L 312.246 92.201 L 311.953 92.494 A 4.126 4.126 0 0 0 311.181 93.55 A 3.931 3.931 0 0 0 311.172 93.569 Q 310.879 94.155 310.488 94.643 A 37.244 37.244 0 0 1 308.828 96.938 Q 307.949 98.061 306.826 98.891 Q 305.703 99.721 304.434 100.16 A 5.62 5.62 0 0 1 302.582 100.465 A 6.677 6.677 0 0 1 301.699 100.405 A 7.518 7.518 0 0 1 303.018 96.108 Q 304.336 94.155 305.557 92.25 Q 306.777 90.346 307.119 88.344 A 3.569 3.569 0 0 0 307.17 87.742 Q 307.17 86.008 305.508 84.096 Q 305.414 82.783 304.374 81.515 A 7.228 7.228 0 0 0 304.287 81.41 A 49.607 49.607 0 0 1 302.203 78.794 A 44.474 44.474 0 0 1 302.188 78.774 A 6.981 6.981 0 0 1 301.541 77.731 Q 301.225 77.096 301.108 76.473 A 4.074 4.074 0 0 1 301.064 76.186 A 1.62 1.62 0 0 1 301.054 76 Q 301.054 74.92 302.504 73.839 A 8.22 8.22 0 0 1 302.773 73.647 Q 301.895 73.451 301.602 72.963 A 2.199 2.199 0 0 1 301.683 72.382 A 2.964 2.964 0 0 1 301.846 71.938 A 25.863 25.863 0 0 0 302.132 71.285 A 21.748 21.748 0 0 0 302.285 70.912 A 3.132 3.132 0 0 0 303.056 70.812 A 3.972 3.972 0 0 0 303.506 70.668 A 14.305 14.305 0 0 1 304.116 70.449 A 10.597 10.597 0 0 1 304.678 70.278 Q 304.946 70.204 305.19 70.204 A 1.457 1.457 0 0 1 305.654 70.278 A 0.886 0.886 0 0 1 305.951 70.453 Q 306.177 70.648 306.389 71.025 A 4.15 4.15 0 0 1 306.484 71.205 A 7.173 7.173 0 0 1 306.896 72.222 A 8.157 8.157 0 0 1 306.973 72.475 Q 307.168 73.158 307.461 73.842 A 18.799 18.799 0 0 0 309.414 77.504 Q 310.586 79.213 312.051 80.678 L 312.344 80.971 A 0.123 0.123 0 0 1 312.36 80.919 Q 312.418 80.803 312.689 80.528 A 8.168 8.168 0 0 1 312.734 80.483 Q 313.125 80.092 313.613 79.653 A 26.289 26.289 0 0 0 314.077 79.225 A 20.28 20.28 0 0 0 314.492 78.823 L 315.078 78.237 A 762.724 762.724 0 0 1 316.781 76.68 A 665.27 665.27 0 0 1 317.324 76.186 A 18.895 18.895 0 0 0 318.742 74.757 A 16.394 16.394 0 0 0 319.229 74.184 A 7.414 7.414 0 0 0 320.498 71.841 A 7.279 7.279 0 0 0 320.498 71.84 A 8.163 8.163 0 0 0 320.828 70.412 Q 320.938 69.643 320.938 68.764 Q 323.965 66.713 326.895 64.223 A 167.906 167.906 0 0 1 332.852 59.389 A 52.964 52.964 0 0 1 339.15 55.19 Q 342.422 53.334 346.23 52.651 Q 347.109 54.213 348.281 55.092 A 140.722 140.722 0 0 1 350.576 56.85 A 10.382 10.382 0 0 1 352.151 58.388 A 12.161 12.161 0 0 1 352.627 58.998 A 5.992 5.992 0 0 1 353.292 60.191 Q 353.549 60.794 353.735 61.525 A 13.055 13.055 0 0 1 353.945 62.514 Q 354.727 66.713 353.994 70.424 A 56.643 56.643 0 0 1 352.687 75.665 A 67.071 67.071 0 0 1 351.895 78.139 A 74.058 74.058 0 0 0 350.479 82.924 Q 349.844 85.366 349.844 87.905 L 350.527 88.1 A 4.842 4.842 0 0 1 351.217 87.348 Q 351.73 86.901 352.312 86.701 A 2.956 2.956 0 0 1 352.529 86.635 Q 353.652 86.342 354.824 86.244 A 17.718 17.718 0 0 0 357.119 85.903 A 2.761 2.761 0 0 0 358.46 85.169 A 4.072 4.072 0 0 0 359.023 84.487 Q 359.692 84.744 360.319 84.744 A 2.985 2.985 0 0 0 361.416 84.535 A 9.475 9.475 0 0 0 363.073 83.684 A 11.06 11.06 0 0 0 363.613 83.315 Q 364.688 82.533 365.762 81.655 Q 366.836 80.776 368.008 80.483 L 367.91 79.701 A 24.578 24.578 0 0 1 369.061 78.977 Q 370.104 78.362 370.938 78.041 Q 372.207 77.553 373.281 77.065 A 8.934 8.934 0 0 0 374.557 76.347 A 11.448 11.448 0 0 0 375.43 75.698 A 7.332 7.332 0 0 0 376.13 75.034 Q 376.818 74.298 377.609 73.153 A 27.947 27.947 0 0 0 377.871 72.768 Q 378.359 72.573 378.994 72.621 A 1.384 1.384 0 0 1 379.398 72.71 A 1.046 1.046 0 0 1 379.922 73.158 Q 379.434 76.186 378.75 77.797 A 9.628 9.628 0 0 1 378.034 79.179 A 7.201 7.201 0 0 1 377.041 80.434 Q 376.016 81.459 374.453 82.387 A 20.739 20.739 0 0 0 373.254 83.161 Q 372.686 83.554 372.058 84.032 A 47.675 47.675 0 0 0 370.742 85.073 Q 369.961 85.658 369.277 86.147 A 10.105 10.105 0 0 0 368.423 86.833 A 12.49 12.49 0 0 0 367.91 87.319 Q 365.957 87.905 363.125 89.223 Q 360.293 90.541 357.314 91.86 A 97.121 97.121 0 0 1 353.706 93.374 A 79.731 79.731 0 0 1 351.65 94.155 A 17.964 17.964 0 0 1 350.321 94.584 Q 348.533 95.08 347.305 94.936 A 2.073 2.073 0 0 1 346.595 95.523 Q 346.056 95.805 345.254 95.912 Q 343.789 96.108 343.008 96.108 A 17.645 17.645 0 0 0 340.42 96.303 Q 339.102 96.498 338.125 97.475 L 337.881 97.719 A 0.222 0.222 0 0 0 337.873 97.728 Q 337.837 97.768 337.881 97.768 A 0.071 0.071 0 0 1 337.89 97.768 Q 337.922 97.772 337.888 97.81 A 0.232 0.232 0 0 1 337.881 97.817 Q 337.832 97.866 337.637 98.158 Q 336.952 98.968 336.247 99.301 A 2.36 2.36 0 0 1 335.439 99.526 A 4.693 4.693 0 0 1 335.033 99.543 A 4.69 4.69 0 0 1 333.242 99.184 Q 332.168 98.744 331.045 98.061 A 10.496 10.496 0 0 0 329.641 97.34 A 8.877 8.877 0 0 0 328.799 97.035 A 4.534 4.534 0 0 0 327.472 96.836 A 4.736 4.736 0 0 0 326.504 96.938 A 3.108 3.108 0 0 0 325.515 97.344 Q 325.123 97.584 324.732 97.949 A 7.453 7.453 0 0 0 324.16 98.549 A 4.411 4.411 0 0 0 323.685 97.635 Q 323.042 96.704 322.012 96.498 A 18.144 18.144 0 0 0 319.033 96.157 A 20.728 20.728 0 0 1 316.845 95.973 A 18.235 18.235 0 0 1 316.152 95.864 A 2.166 2.166 0 0 1 314.574 94.717 A 3.536 3.536 0 0 1 314.297 94.057 Z M 139.297 92.787 L 148.379 87.319 A 155.245 155.245 0 0 0 147.735 88.433 Q 147.112 89.521 146.657 90.364 A 46.739 46.739 0 0 0 146.279 91.078 A 19.122 19.122 0 0 1 145.684 92.148 Q 145.385 92.645 145.086 93.061 A 10.101 10.101 0 0 1 144.814 93.422 Q 144.082 94.35 143.154 95.082 A 20.232 20.232 0 0 1 142.503 95.573 Q 141.708 96.15 140.566 96.889 A 17.145 17.145 0 0 1 139.228 97.992 A 14.086 14.086 0 0 1 138.418 98.549 A 17.569 17.569 0 0 1 137.391 99.292 A 14.124 14.124 0 0 1 136.709 99.721 A 5.939 5.939 0 0 1 136.292 99.946 Q 135.877 100.147 135.569 100.195 A 1.177 1.177 0 0 1 135.391 100.209 A 1.605 1.605 0 0 1 135 100.16 A 1.605 1.605 0 0 0 134.609 100.112 A 12.805 12.805 0 0 0 133.758 100.139 A 11.31 11.31 0 0 0 133.486 100.16 A 0.692 0.692 0 0 1 133.424 100.163 Q 132.926 100.163 132.559 99.428 A 2.606 2.606 0 0 0 132.072 100.109 A 3.252 3.252 0 0 0 132.07 100.112 A 15.733 15.733 0 0 1 131.802 100.626 A 13.452 13.452 0 0 1 131.68 100.844 Q 131.484 101.186 131.143 101.381 Q 130.801 101.576 130.215 101.381 L 129.727 100.795 L 128.262 102.065 A 58.074 58.074 0 0 0 125.02 100.562 A 47.032 47.032 0 0 0 123.037 99.77 Q 120.547 98.842 118.594 97.573 Q 116.641 96.303 115.273 94.301 Q 114.24 92.788 113.653 90.411 A 21.623 21.623 0 0 1 113.32 88.783 A 6.381 6.381 0 0 0 112.246 87.758 A 1.472 1.472 0 0 0 111.341 87.454 Q 111.189 87.454 111.027 87.482 A 2.149 2.149 0 0 0 110.879 87.514 A 11.316 11.316 0 0 1 109.034 89.889 A 10.43 10.43 0 0 1 108.535 90.346 A 47.959 47.959 0 0 0 106.164 92.525 A 53.372 53.372 0 0 0 105.801 92.885 A 4.126 4.126 0 0 0 105.029 93.941 A 3.931 3.931 0 0 0 105.02 93.959 A 4.12 4.12 0 0 1 104.242 95.03 A 5.142 5.142 0 0 1 104.238 95.033 A 4.121 4.121 0 0 1 102.383 96.254 A 53.593 53.593 0 0 1 100.234 96.889 Q 99.16 97.182 98.232 97.866 Q 97.514 98.395 97.117 99.511 A 6.61 6.61 0 0 0 96.914 100.209 A 3.686 3.686 0 0 0 96.119 99.858 Q 95.345 99.625 94.57 99.819 A 66.776 66.776 0 0 0 93.667 100.026 A 78.934 78.934 0 0 0 92.715 100.258 A 10.285 10.285 0 0 1 91.219 100.52 A 9.164 9.164 0 0 1 90.811 100.551 A 5.023 5.023 0 0 1 90.546 100.558 A 4.847 4.847 0 0 1 89.004 100.307 A 2.676 2.676 0 0 1 88.089 99.772 Q 87.746 99.472 87.441 99.037 A 3.642 3.642 0 0 1 86.796 99.248 Q 85.793 99.471 84.902 98.989 A 7.889 7.889 0 0 1 83.394 97.915 A 9.742 9.742 0 0 1 82.705 97.231 Q 81.68 96.108 80.703 94.838 A 12.395 12.395 0 0 0 80.043 94.046 Q 79.424 93.367 78.848 92.983 A 4.82 4.82 0 0 1 78.655 92.346 Q 78.395 91.184 78.896 90.297 A 24.067 24.067 0 0 1 80.264 88.149 Q 80.996 87.123 81.289 86.098 A 1.549 1.549 0 0 0 81.348 85.67 Q 81.348 84.78 80.41 83.608 A 25.938 25.938 0 0 0 82.168 80.532 A 148.63 148.63 0 0 1 83.779 77.309 A 48.347 48.347 0 0 1 85.537 74.184 Q 86.465 72.67 87.832 71.596 A 3.16 3.16 0 0 1 87.523 71.174 Q 87.374 70.926 87.305 70.685 A 1.478 1.478 0 0 1 87.246 70.278 A 2.917 2.917 0 0 1 87.436 69.256 A 3.498 3.498 0 0 1 87.539 69.008 A 11.952 11.952 0 0 1 88.127 67.897 A 13.191 13.191 0 0 1 88.223 67.739 A 6.83 6.83 0 0 0 88.564 67.116 A 5.143 5.143 0 0 0 88.809 66.518 L 91.641 65.151 L 90.957 62.807 Q 92.031 63.002 92.568 62.709 A 1.723 1.723 0 0 0 93.35 61.83 A 6.285 6.285 0 0 0 93.593 61.125 A 8.036 8.036 0 0 0 93.74 60.512 A 5.675 5.675 0 0 1 93.966 59.694 A 4.667 4.667 0 0 1 94.18 59.194 A 2.813 2.813 0 0 1 95.645 57.924 A 75.416 75.416 0 0 0 99.697 54.604 A 186.568 186.568 0 0 1 103.701 51.186 A 66.497 66.497 0 0 1 107.852 48.012 Q 110 46.498 112.539 45.424 Q 113.875 45.647 114.787 46.151 A 4.364 4.364 0 0 1 115.322 46.498 A 5.468 5.468 0 0 1 116.543 47.772 A 5.043 5.043 0 0 1 116.885 48.354 A 9.794 9.794 0 0 1 117.508 49.946 A 11.758 11.758 0 0 1 117.715 50.746 A 326.451 326.451 0 0 0 118.301 53.334 A 15.722 15.722 0 0 0 118.765 54.693 Q 119.038 55.38 119.354 55.957 A 9.161 9.161 0 0 0 119.473 56.166 A 4.067 4.067 0 0 0 120.382 57.225 Q 120.816 57.591 121.386 57.902 A 8.089 8.089 0 0 0 121.816 58.119 Q 120.69 60.05 120.69 61.947 A 6.402 6.402 0 0 0 120.742 62.758 A 374.108 374.108 0 0 1 121.035 65.114 A 434.376 434.376 0 0 1 121.328 67.592 A 17.261 17.261 0 0 1 121.463 69.735 A 16.243 16.243 0 0 1 121.279 72.182 A 4.932 4.932 0 0 1 120.248 74.493 Q 119.735 75.151 118.978 75.756 A 10.562 10.562 0 0 1 118.398 76.186 A 3.459 3.459 0 0 0 118.268 77.141 A 4.11 4.11 0 0 0 118.301 77.651 Q 118.398 78.432 118.398 79.213 A 3.679 3.679 0 0 1 118.105 80.678 A 2 2 0 0 1 117.432 81.509 A 2.761 2.761 0 0 1 117.031 81.752 Q 117.771 82.657 117.923 83.561 A 2.83 2.83 0 0 1 117.959 83.901 A 486.785 486.785 0 0 0 118.008 84.95 A 422.103 422.103 0 0 0 118.057 85.951 A 4.14 4.14 0 0 0 118.28 87.123 A 3.686 3.686 0 0 0 118.545 87.709 A 1.612 1.612 0 0 0 118.991 88.2 Q 119.555 88.625 120.645 88.881 Q 120.885 89.925 121.093 90.54 A 6.383 6.383 0 0 0 121.182 90.785 Q 121.426 91.42 121.768 91.811 A 2.98 2.98 0 0 0 122.142 92.166 Q 122.323 92.313 122.544 92.452 A 5.274 5.274 0 0 0 122.695 92.543 A 12.224 12.224 0 0 1 123.013 92.736 Q 123.365 92.956 123.822 93.267 A 43.379 43.379 0 0 1 124.258 93.569 Q 125.039 93.764 126.016 93.569 Q 126.992 93.373 127.578 94.155 Q 128.066 93.666 128.75 93.617 Q 129.434 93.569 130.02 93.666 L 131.289 95.815 A 11.864 11.864 0 0 1 132.905 94.833 A 14.136 14.136 0 0 1 133.73 94.448 A 28.228 28.228 0 0 1 135.401 93.791 A 23.813 23.813 0 0 1 136.367 93.471 Q 137.832 93.08 139.297 92.787 Z M 306.973 92.787 L 316.055 87.319 A 155.245 155.245 0 0 0 315.411 88.433 Q 314.788 89.521 314.333 90.364 A 46.739 46.739 0 0 0 313.955 91.078 A 19.122 19.122 0 0 1 313.36 92.148 Q 313.061 92.645 312.762 93.061 A 10.101 10.101 0 0 1 312.49 93.422 Q 311.758 94.35 310.83 95.082 A 20.232 20.232 0 0 1 310.179 95.573 Q 309.384 96.15 308.242 96.889 A 17.145 17.145 0 0 1 306.904 97.992 A 14.086 14.086 0 0 1 306.094 98.549 A 17.569 17.569 0 0 1 305.067 99.292 A 14.124 14.124 0 0 1 304.385 99.721 A 5.939 5.939 0 0 1 303.968 99.946 Q 303.553 100.147 303.245 100.195 A 1.177 1.177 0 0 1 303.066 100.209 A 1.605 1.605 0 0 1 302.676 100.16 A 1.605 1.605 0 0 0 302.285 100.112 A 12.805 12.805 0 0 0 301.434 100.139 A 11.31 11.31 0 0 0 301.162 100.16 A 0.692 0.692 0 0 1 301.099 100.163 Q 300.602 100.163 300.234 99.428 A 2.606 2.606 0 0 0 299.748 100.109 A 3.252 3.252 0 0 0 299.746 100.112 A 15.733 15.733 0 0 1 299.478 100.626 A 13.452 13.452 0 0 1 299.355 100.844 Q 299.16 101.186 298.818 101.381 Q 298.477 101.576 297.891 101.381 L 297.402 100.795 L 295.938 102.065 A 58.074 58.074 0 0 0 292.696 100.562 A 47.032 47.032 0 0 0 290.713 99.77 Q 288.223 98.842 286.27 97.573 Q 284.316 96.303 282.949 94.301 Q 281.916 92.788 281.329 90.411 A 21.623 21.623 0 0 1 280.996 88.783 A 6.381 6.381 0 0 0 279.922 87.758 A 1.472 1.472 0 0 0 279.017 87.454 Q 278.864 87.454 278.703 87.482 A 2.149 2.149 0 0 0 278.555 87.514 A 11.316 11.316 0 0 1 276.71 89.889 A 10.43 10.43 0 0 1 276.211 90.346 A 47.959 47.959 0 0 0 273.84 92.525 A 53.372 53.372 0 0 0 273.477 92.885 A 4.126 4.126 0 0 0 272.705 93.941 A 3.931 3.931 0 0 0 272.695 93.959 A 4.12 4.12 0 0 1 271.918 95.03 A 5.142 5.142 0 0 1 271.914 95.033 A 4.121 4.121 0 0 1 270.059 96.254 A 53.593 53.593 0 0 1 267.91 96.889 Q 266.836 97.182 265.908 97.866 Q 265.19 98.395 264.793 99.511 A 6.61 6.61 0 0 0 264.59 100.209 A 3.686 3.686 0 0 0 263.795 99.858 Q 263.021 99.625 262.246 99.819 A 66.776 66.776 0 0 0 261.343 100.026 A 78.934 78.934 0 0 0 260.391 100.258 A 10.285 10.285 0 0 1 258.895 100.52 A 9.164 9.164 0 0 1 258.486 100.551 A 5.023 5.023 0 0 1 258.222 100.558 A 4.847 4.847 0 0 1 256.68 100.307 A 2.676 2.676 0 0 1 255.765 99.772 Q 255.422 99.472 255.117 99.037 A 3.642 3.642 0 0 1 254.472 99.248 Q 253.469 99.471 252.578 98.989 A 7.889 7.889 0 0 1 251.07 97.915 A 9.742 9.742 0 0 1 250.381 97.231 Q 249.355 96.108 248.379 94.838 A 12.395 12.395 0 0 0 247.719 94.046 Q 247.1 93.367 246.523 92.983 A 4.82 4.82 0 0 1 246.331 92.346 Q 246.071 91.184 246.572 90.297 A 24.067 24.067 0 0 1 247.939 88.149 Q 248.672 87.123 248.965 86.098 A 1.549 1.549 0 0 0 249.023 85.67 Q 249.023 84.78 248.086 83.608 A 25.938 25.938 0 0 0 249.844 80.532 A 148.63 148.63 0 0 1 251.455 77.309 A 48.347 48.347 0 0 1 253.213 74.184 Q 254.141 72.67 255.508 71.596 A 3.16 3.16 0 0 1 255.199 71.174 Q 255.05 70.926 254.981 70.685 A 1.478 1.478 0 0 1 254.922 70.278 A 2.917 2.917 0 0 1 255.112 69.256 A 3.498 3.498 0 0 1 255.215 69.008 A 11.952 11.952 0 0 1 255.802 67.897 A 13.191 13.191 0 0 1 255.898 67.739 A 6.83 6.83 0 0 0 256.24 67.116 A 5.143 5.143 0 0 0 256.484 66.518 L 259.316 65.151 L 258.633 62.807 Q 259.707 63.002 260.244 62.709 A 1.723 1.723 0 0 0 261.025 61.83 A 6.285 6.285 0 0 0 261.269 61.125 A 8.036 8.036 0 0 0 261.416 60.512 A 5.675 5.675 0 0 1 261.642 59.694 A 4.667 4.667 0 0 1 261.855 59.194 A 2.813 2.813 0 0 1 263.32 57.924 A 75.416 75.416 0 0 0 267.373 54.604 A 186.568 186.568 0 0 1 271.377 51.186 A 66.497 66.497 0 0 1 275.527 48.012 Q 277.676 46.498 280.215 45.424 Q 281.55 45.647 282.463 46.151 A 4.364 4.364 0 0 1 282.998 46.498 A 5.468 5.468 0 0 1 284.219 47.772 A 5.043 5.043 0 0 1 284.561 48.354 A 9.794 9.794 0 0 1 285.184 49.946 A 11.758 11.758 0 0 1 285.391 50.746 A 326.451 326.451 0 0 0 285.977 53.334 A 15.722 15.722 0 0 0 286.441 54.693 Q 286.713 55.38 287.03 55.957 A 9.161 9.161 0 0 0 287.148 56.166 A 4.067 4.067 0 0 0 288.058 57.225 Q 288.492 57.591 289.062 57.902 A 8.089 8.089 0 0 0 289.492 58.119 Q 288.366 60.05 288.366 61.947 A 6.402 6.402 0 0 0 288.418 62.758 A 374.108 374.108 0 0 1 288.711 65.114 A 434.376 434.376 0 0 1 289.004 67.592 A 17.261 17.261 0 0 1 289.139 69.735 A 16.243 16.243 0 0 1 288.955 72.182 A 4.932 4.932 0 0 1 287.924 74.493 Q 287.411 75.151 286.654 75.756 A 10.562 10.562 0 0 1 286.074 76.186 A 3.459 3.459 0 0 0 285.944 77.141 A 4.11 4.11 0 0 0 285.977 77.651 Q 286.074 78.432 286.074 79.213 A 3.679 3.679 0 0 1 285.781 80.678 A 2 2 0 0 1 285.108 81.509 A 2.761 2.761 0 0 1 284.707 81.752 Q 285.447 82.657 285.599 83.561 A 2.83 2.83 0 0 1 285.635 83.901 A 486.785 486.785 0 0 0 285.684 84.95 A 422.103 422.103 0 0 0 285.732 85.951 A 4.14 4.14 0 0 0 285.955 87.123 A 3.686 3.686 0 0 0 286.221 87.709 A 1.612 1.612 0 0 0 286.667 88.2 Q 287.231 88.625 288.32 88.881 Q 288.561 89.925 288.769 90.54 A 6.383 6.383 0 0 0 288.857 90.785 Q 289.102 91.42 289.443 91.811 A 2.98 2.98 0 0 0 289.817 92.166 Q 289.999 92.313 290.22 92.452 A 5.274 5.274 0 0 0 290.371 92.543 A 12.224 12.224 0 0 1 290.688 92.736 Q 291.041 92.956 291.497 93.267 A 43.379 43.379 0 0 1 291.934 93.569 Q 292.715 93.764 293.691 93.569 Q 294.668 93.373 295.254 94.155 Q 295.742 93.666 296.426 93.617 Q 297.109 93.569 297.695 93.666 L 298.965 95.815 A 11.864 11.864 0 0 1 300.58 94.833 A 14.136 14.136 0 0 1 301.406 94.448 A 28.228 28.228 0 0 1 303.077 93.791 A 23.813 23.813 0 0 1 304.043 93.471 Q 305.508 93.08 306.973 92.787 Z M 596.83 67.458 A 4.361 4.361 0 0 0 596.719 66.908 Q 595.254 67.983 593.74 68.178 A 31.783 31.783 0 0 1 590.664 68.422 Q 589.102 68.471 587.637 68.813 A 4.9 4.9 0 0 0 587.584 68.825 Q 586.147 69.178 584.805 70.424 A 7.309 7.309 0 0 0 584.54 70.006 Q 583.724 68.811 582.907 68.811 A 1.117 1.117 0 0 0 582.852 68.813 A 3.596 3.596 0 0 0 581.947 68.977 A 4.284 4.284 0 0 0 580.947 69.448 A 15.393 15.393 0 0 1 579.043 70.473 Q 578.066 70.912 576.992 69.936 A 11.137 11.137 0 0 1 575.524 70.662 Q 573.91 71.313 572.295 71.313 A 8.064 8.064 0 0 1 571.328 71.254 A 13.177 13.177 0 0 1 568.673 70.644 A 16.307 16.307 0 0 1 565.664 69.252 L 565.664 67.592 L 565.664 65.297 L 565.664 63.002 L 565.664 61.44 Q 565.591 61 565.353 60.176 A 35.939 35.939 0 0 0 565.176 59.584 Q 564.785 58.315 564.346 56.948 A 262.854 262.854 0 0 0 563.467 54.262 Q 563.027 52.944 562.832 52.26 A 10.125 10.125 0 0 0 561.876 51.68 Q 560.018 50.698 558.535 51.088 A 11.425 11.425 0 0 0 557.15 51.551 A 13.526 13.526 0 0 0 554.873 52.748 A 63.747 63.747 0 0 1 554.418 53.041 A 70.15 70.15 0 0 1 551.064 55.043 A 6.355 6.355 0 0 1 550.002 55.518 Q 548.39 56.067 546.426 55.776 A 1.671 1.671 0 0 1 546.492 55.925 Q 546.615 56.246 546.577 56.567 A 1.425 1.425 0 0 1 546.475 56.948 A 29.228 29.228 0 0 0 546.327 57.309 A 24.997 24.997 0 0 0 546.035 58.071 A 4.9 4.9 0 0 0 545.905 58.483 A 3.881 3.881 0 0 0 545.791 59.096 Q 545.753 59.472 546.15 59.848 A 2.583 2.583 0 0 0 546.426 60.073 A 5.629 5.629 0 0 1 546.031 60.49 A 4.54 4.54 0 0 1 545.156 61.147 A 19.319 19.319 0 0 1 543.74 61.879 A 57.052 57.052 0 0 0 543.371 62.053 A 64.143 64.143 0 0 0 542.227 62.612 Q 541.445 63.002 540.859 63.588 Q 541.152 65.737 539.883 66.811 Q 538.613 67.885 537.148 68.764 A 12.536 12.536 0 0 0 536.276 69.337 A 10.422 10.422 0 0 0 534.658 70.766 A 2.134 2.134 0 0 0 534.176 71.648 Q 533.96 72.426 534.212 73.519 A 7.766 7.766 0 0 0 534.414 74.233 A 4.285 4.285 0 0 0 533.971 74.464 Q 533.68 74.64 533.472 74.841 A 1.757 1.757 0 0 0 533.047 75.453 A 7.289 7.289 0 0 0 532.976 75.638 A 7.982 7.982 0 0 0 532.607 77.016 A 7.074 7.074 0 0 1 532.119 78.627 Q 531.9 79.129 531.418 79.551 A 4.276 4.276 0 0 1 530.801 79.994 Q 531.387 81.948 530.947 83.461 A 20.653 20.653 0 0 1 529.824 86.44 Q 529.141 87.905 528.506 89.418 A 6.291 6.291 0 0 0 528.02 91.876 A 7.365 7.365 0 0 0 528.066 92.69 Q 529.238 94.252 529.971 96.01 A 10.474 10.474 0 0 1 530.297 96.907 A 11.533 11.533 0 0 1 530.801 99.819 A 5.705 5.705 0 0 1 531.152 99.766 Q 532.013 99.664 532.705 99.867 Q 533.535 100.112 534.268 100.6 A 19.293 19.293 0 0 1 534.451 100.723 A 21.206 21.206 0 0 1 535.732 101.674 Q 536.465 102.26 537.246 102.651 Q 541.641 102.065 545.742 100.063 A 24.317 24.317 0 0 0 552.871 94.838 A 8.667 8.667 0 0 0 552.939 94.848 Q 554.185 95.016 554.934 94.741 A 1.654 1.654 0 0 0 555.654 94.252 A 5.465 5.465 0 0 0 556.266 93.342 A 6.854 6.854 0 0 0 556.777 92.104 A 26.571 26.571 0 0 1 557.705 89.565 A 2.737 2.737 0 0 1 557.888 89.206 Q 558.26 88.597 558.944 88.206 A 4.456 4.456 0 0 1 559.902 87.807 A 4.41 4.41 0 0 0 559.783 87.637 Q 559.699 87.523 559.596 87.397 A 9.735 9.735 0 0 0 559.365 87.123 A 1.029 1.029 0 0 1 559.278 87.009 Q 559.102 86.74 559.164 86.428 A 1.03 1.03 0 0 1 559.219 86.244 A 6.786 6.786 0 0 0 559.454 86.173 Q 560.077 85.97 560.558 85.675 A 3.252 3.252 0 0 0 561.904 84.145 A 21.398 21.398 0 0 0 562.098 83.667 A 23.775 23.775 0 0 0 562.979 80.922 A 16.59 16.59 0 0 1 563.41 79.502 A 12.777 12.777 0 0 1 564.102 77.895 Q 564.609 76.916 565.977 76.557 A 6.299 6.299 0 0 1 567.031 76.381 A 4.744 4.744 0 0 1 567.813 76.316 A 4.702 4.702 0 0 1 568.203 76.332 A 13.498 13.498 0 0 0 568.735 76.366 A 16.931 16.931 0 0 0 569.473 76.381 A 8.013 8.013 0 0 1 570.138 76.353 A 7.648 7.648 0 0 1 571.768 76.528 A 6.07 6.07 0 0 0 573.061 76.663 Q 573.128 76.663 573.195 76.662 A 7.314 7.314 0 0 0 574.16 76.576 A 262.554 262.554 0 0 1 578.274 75.954 A 196.997 196.997 0 0 1 582.021 75.453 Q 583.915 75.22 586.043 74.835 A 101.503 101.503 0 0 0 589.98 74.037 A 6.957 6.957 0 0 1 590.039 73.986 Q 590.484 73.599 591.038 73.249 A 11.315 11.315 0 0 1 592.178 72.621 A 19.479 19.479 0 0 0 592.504 72.46 A 17.521 17.521 0 0 0 594.619 71.205 A 7.851 7.851 0 0 0 595.121 70.826 A 6.553 6.553 0 0 0 596.426 69.399 A 2.565 2.565 0 0 0 596.65 68.985 Q 596.942 68.304 596.83 67.458 Z M 457.266 97.963 L 456.582 98.061 A 5.132 5.132 0 0 1 456.427 98.662 Q 456.221 99.285 455.894 99.572 A 0.976 0.976 0 0 1 455.557 99.77 A 4.644 4.644 0 0 1 454.671 99.967 A 6.157 6.157 0 0 1 453.896 100.014 A 8.303 8.303 0 0 0 452.09 100.209 Q 451.211 100.405 450.625 101.869 A 11.851 11.851 0 0 1 449.635 102.117 Q 448.601 102.327 447.796 102.26 A 3.622 3.622 0 0 1 447.793 102.26 Q 447.006 102.194 445.91 102.173 A 58.43 58.43 0 0 0 444.766 102.162 A 9.127 9.127 0 0 1 444.366 102.153 Q 443.897 102.132 443.272 102.067 A 27.59 27.59 0 0 1 443.252 102.065 Q 442.324 101.967 441.738 102.162 Q 441.456 102.233 441.147 102.483 A 3.094 3.094 0 0 0 440.908 102.7 A 4.993 4.993 0 0 1 440.229 103.271 A 4.41 4.41 0 0 1 439.98 103.432 Q 439.562 103.683 439.143 103.683 A 1.401 1.401 0 0 1 439.004 103.676 A 0.742 0.742 0 0 1 438.618 103.511 Q 438.355 103.305 438.125 102.846 Q 437.539 102.992 437.002 102.992 A 3.55 3.55 0 0 1 435.977 102.846 A 5.518 5.518 0 0 1 434.454 102.112 A 6.471 6.471 0 0 1 434.121 101.869 Q 433.242 101.186 432.51 100.258 A 47.375 47.375 0 0 0 431.613 99.156 A 38.953 38.953 0 0 0 431.094 98.549 Q 430.605 97.963 430.02 97.475 A 16.728 16.728 0 0 1 429.228 96.773 A 14.406 14.406 0 0 1 428.945 96.498 A 5.945 5.945 0 0 1 427.704 94.651 A 7.509 7.509 0 0 1 427.383 93.764 A 15.026 15.026 0 0 1 426.797 90.346 A 21.122 21.122 0 0 1 426.764 89.174 A 21.208 21.208 0 0 1 426.895 86.83 A 22.625 22.625 0 0 1 427.13 85.219 Q 427.279 84.41 427.48 83.705 A 4.852 4.852 0 0 0 428.526 82.183 A 4.635 4.635 0 0 0 428.701 81.703 A 26.301 26.301 0 0 0 429.287 79.408 A 26.301 26.301 0 0 1 429.873 77.114 Q 430.215 75.991 431.094 75.112 A 6.421 6.421 0 0 1 431.292 73.494 A 5.684 5.684 0 0 1 431.533 72.768 Q 431.973 71.694 432.705 70.717 Q 433.438 69.741 434.365 68.91 A 45.37 45.37 0 0 0 435.468 67.892 A 37.904 37.904 0 0 0 436.074 67.299 A 25.043 25.043 0 0 0 437.637 67.25 Q 438.418 67.201 439.102 67.348 A 2.574 2.574 0 0 1 439.966 67.699 A 2.419 2.419 0 0 1 440.273 67.934 Q 440.626 68.251 440.877 68.849 A 5.035 5.035 0 0 1 441.055 69.35 A 9.264 9.264 0 0 1 441.242 70.241 Q 441.559 72.269 440.713 73.598 Q 439.688 75.209 438.418 76.674 Q 437.148 78.139 436.367 79.701 A 3.005 3.005 0 0 0 436.06 80.897 Q 435.994 82.115 436.758 83.705 Q 436.187 83.705 435.824 83.871 A 1.032 1.032 0 0 0 435.342 84.291 A 4.112 4.112 0 0 0 434.927 85.296 A 4.844 4.844 0 0 0 434.854 85.61 A 7.139 7.139 0 0 1 434.414 87.026 A 1.598 1.598 0 0 1 433.767 87.761 A 2.466 2.466 0 0 1 433.242 88.002 A 1.714 1.714 0 0 1 433.594 88.537 Q 433.811 89.036 433.864 89.803 A 7.022 7.022 0 0 1 433.877 90.053 A 19.339 19.339 0 0 0 434.06 92.168 A 16.953 16.953 0 0 0 434.17 92.836 A 6.17 6.17 0 0 0 434.408 93.749 Q 434.58 94.24 434.827 94.627 A 3.328 3.328 0 0 0 435.049 94.936 A 1.1 1.1 0 0 0 435.717 95.323 Q 436.35 95.446 437.372 95.06 A 7.236 7.236 0 0 0 437.441 95.033 A 3.798 3.798 0 0 0 439.974 95.942 Q 440.231 95.942 440.5 95.914 A 5.496 5.496 0 0 0 440.518 95.912 A 22.463 22.463 0 0 1 442.122 95.795 Q 442.475 95.782 442.818 95.782 A 17.137 17.137 0 0 1 443.887 95.815 Q 445.254 94.936 446.23 94.887 A 6.464 6.464 0 0 1 446.553 94.879 A 5.701 5.701 0 0 1 448.086 95.082 Q 448.965 95.326 449.941 95.522 Q 450.918 95.717 452.285 95.229 A 5.078 5.078 0 0 1 452.509 94.505 Q 452.912 93.498 453.652 93.276 A 8.203 8.203 0 0 1 455.605 92.934 A 6.72 6.72 0 0 0 456.824 92.765 A 5.771 5.771 0 0 0 457.412 92.592 A 1.215 1.215 0 0 0 457.979 92.155 Q 458.282 91.751 458.456 91.021 A 6.464 6.464 0 0 0 458.535 90.639 A 3.412 3.412 0 0 1 459.211 89.988 A 2.607 2.607 0 0 1 460.391 89.516 Q 461.465 89.369 462.588 89.174 Q 463.711 88.979 464.639 88.344 Q 465.525 87.738 465.921 86.017 A 8.905 8.905 0 0 0 465.957 85.854 Q 467.617 84.584 468.35 83.95 A 66.608 66.608 0 0 1 468.701 83.647 Q 469.204 83.217 469.57 82.924 A 9.404 9.404 0 0 1 469.978 82.617 Q 470.165 82.484 470.38 82.341 A 20.02 20.02 0 0 1 470.84 82.045 A 263.02 263.02 0 0 0 471.298 81.758 Q 472.002 81.316 473.19 80.566 A 2078.443 2078.443 0 0 0 473.477 80.385 A 17.775 17.775 0 0 1 473.49 80.765 Q 473.534 82.613 473.135 83.412 Q 472.696 84.289 472.112 84.826 A 3.867 3.867 0 0 1 472.109 84.828 Q 471.523 85.366 471.084 86 Q 470.716 86.532 470.656 87.715 A 9.586 9.586 0 0 0 470.645 88.198 A 74.562 74.562 0 0 1 469.576 89.336 Q 468.057 90.92 467.031 91.762 Q 465.664 92.885 464.395 93.617 A 258.843 258.843 0 0 1 463.052 94.387 A 349.907 349.907 0 0 1 461.563 95.229 A 31.263 31.263 0 0 0 460.708 95.729 Q 459.751 96.308 458.483 97.147 A 123.172 123.172 0 0 0 457.266 97.963 Z M 36.758 113.198 L 35.977 113.588 A 2.954 2.954 0 0 0 35.34 114.009 A 2.15 2.15 0 0 0 34.707 114.955 A 24.418 24.418 0 0 0 34.295 116.329 A 27.651 27.651 0 0 0 34.17 116.811 A 15.65 15.65 0 0 1 33.668 118.445 A 14.228 14.228 0 0 1 33.584 118.666 A 2.235 2.235 0 0 1 32.858 119.622 Q 32.581 119.84 32.217 120.011 A 4.168 4.168 0 0 1 32.168 120.033 Q 30.999 119.494 30.451 119.203 A 9.279 9.279 0 0 1 30.361 119.155 A 2.25 2.25 0 0 0 30.097 119.031 Q 29.85 118.935 29.638 118.935 A 0.84 0.84 0 0 0 29.434 118.959 Q 29.104 119.042 28.704 119.508 A 4.442 4.442 0 0 0 28.555 119.692 Q 28.085 120.303 26.981 121.502 A 80.554 80.554 0 0 1 26.895 121.596 A 499.734 499.734 0 0 1 21.377 127.797 A 10231.833 10231.833 0 0 1 15.762 133.998 A 32.885 32.885 0 0 1 14.602 136.856 A 38.393 38.393 0 0 1 14.053 138.002 A 115.358 115.358 0 0 1 11.953 142.006 Q 10.781 144.057 9.902 146.694 A 57.703 57.703 0 0 0 8.389 152.114 Q 7.754 154.897 7.314 157.729 A 173.587 173.587 0 0 0 6.912 160.463 A 137.985 137.985 0 0 0 6.582 163.002 A 0.214 0.214 0 0 0 6.679 163.094 Q 6.841 163.18 7.233 163.151 A 3.286 3.286 0 0 0 7.266 163.149 A 8.253 8.253 0 0 0 8.133 163.028 A 9.641 9.641 0 0 0 8.486 162.953 A 71.117 71.117 0 0 0 9.411 162.734 A 63.437 63.437 0 0 0 9.707 162.66 A 12.139 12.139 0 0 0 9.96 162.594 Q 10.278 162.508 10.434 162.441 A 0.981 0.981 0 0 0 10.488 162.416 A 0.123 0.123 0 0 0 10.54 162.4 Q 10.656 162.342 10.931 162.071 A 8.168 8.168 0 0 0 10.977 162.026 Q 11.367 161.635 11.807 161.147 A 18.919 18.919 0 0 0 12.27 160.613 A 14.75 14.75 0 0 0 12.588 160.219 Q 12.91 159.804 12.929 159.694 A 0.075 0.075 0 0 0 12.93 159.682 A 7.051 7.051 0 0 1 13.162 159.572 Q 13.564 159.389 14.297 159.096 Q 15.273 158.705 15.664 158.705 A 0.121 0.121 0 0 0 15.762 158.644 Q 15.873 158.486 15.908 157.924 A 80.657 80.657 0 0 0 15.925 157.652 Q 15.954 157.149 15.957 156.975 A 2.057 2.057 0 0 0 15.957 156.948 L 15.957 155.287 Q 15.767 155.098 15.808 154.262 A 7.277 7.277 0 0 1 15.811 154.213 A 113.731 113.731 0 0 0 15.827 153.908 Q 15.857 153.346 15.859 153.167 A 2.147 2.147 0 0 0 15.859 153.139 A 130.185 130.185 0 0 0 17.959 152.162 A 41.795 41.795 0 0 0 19.525 151.375 A 46.727 46.727 0 0 0 20.059 151.088 A 24.418 24.418 0 0 1 20.553 149.742 A 27.651 27.651 0 0 1 20.742 149.282 Q 21.133 148.354 21.621 147.475 Q 23.574 143.764 25.332 140.102 Q 27.09 136.44 29.336 132.729 A 133.894 133.894 0 0 0 32.51 127.211 A 200.987 200.987 0 0 1 35.684 121.596 A 4.027 4.027 0 0 1 35.738 121.492 Q 35.828 121.324 36.006 121.016 A 53.931 53.931 0 0 1 36.123 120.815 A 11.95 11.95 0 0 1 36.743 119.863 A 13.429 13.429 0 0 1 36.904 119.643 A 10.651 10.651 0 0 1 37.398 119.03 A 8.319 8.319 0 0 1 37.783 118.617 Q 38.107 118.294 38.351 118.208 A 0.5 0.5 0 0 1 38.516 118.178 A 0.485 0.485 0 0 0 38.958 117.92 Q 39.016 117.821 39.054 117.683 A 1.76 1.76 0 0 0 39.102 117.446 A 22.307 22.307 0 0 0 39.144 117.112 Q 39.197 116.663 39.199 116.441 A 1.899 1.899 0 0 0 39.199 116.42 A 1.079 1.079 0 0 1 39.225 116.21 Q 39.296 115.863 39.564 115.212 A 18.512 18.512 0 0 1 39.736 114.809 A 79.064 79.064 0 0 1 40.597 112.923 A 90.753 90.753 0 0 1 40.908 112.27 A 208.091 208.091 0 0 1 41.519 111.012 A 154.829 154.829 0 0 1 42.08 109.877 Q 42.607 108.823 42.617 108.709 A 0.046 0.046 0 0 0 42.617 108.705 Q 42.377 108.946 41.808 109.548 A 173.379 173.379 0 0 0 41.543 109.828 A 26.904 26.904 0 0 1 40.289 111.074 A 30.705 30.705 0 0 1 39.834 111.489 A 14.492 14.492 0 0 1 38.918 112.245 A 10.898 10.898 0 0 1 38.027 112.856 A 4.597 4.597 0 0 1 37.721 113.028 Q 37.166 113.312 36.852 113.232 A 0.465 0.465 0 0 1 36.758 113.198 Z M 422.402 6.85 L 418.203 6.166 A 3.719 3.719 0 0 1 418.216 6.414 Q 418.222 6.789 418.145 7.103 A 1.812 1.812 0 0 1 417.666 7.973 A 10.023 10.023 0 0 1 416.274 9.128 A 10.969 10.969 0 0 1 416.25 9.145 A 60.953 60.953 0 0 0 414.736 10.219 A 1.966 1.966 0 0 0 413.999 11.312 A 2.902 2.902 0 0 0 413.906 11.83 A 4.347 4.347 0 0 0 413.168 12.257 Q 412.509 12.737 412.246 13.393 A 14.304 14.304 0 0 0 411.611 15.395 A 9.264 9.264 0 0 1 410.879 17.397 A 2.607 2.607 0 0 1 410.208 18.225 Q 409.894 18.489 409.472 18.71 A 5.939 5.939 0 0 1 408.926 18.959 L 409.609 19.643 A 22.099 22.099 0 0 0 404.482 26.576 Q 402.578 30.58 401.113 34.584 A 8.738 8.738 0 0 0 399.277 37.52 A 8.456 8.456 0 0 0 399.16 37.856 Q 398.574 39.662 398.037 41.469 A 19.707 19.707 0 0 1 396.67 44.887 A 5.328 5.328 0 0 1 394.747 46.958 A 6.975 6.975 0 0 1 393.984 47.377 A 4.899 4.899 0 0 1 394.396 48 Q 394.766 48.671 394.766 49.283 A 1.968 1.968 0 0 1 394.717 49.721 A 4.802 4.802 0 0 1 394.088 51.215 A 5.99 5.99 0 0 1 393.691 51.772 A 85.109 85.109 0 0 1 392.08 53.725 A 4.043 4.043 0 0 0 391.398 54.835 A 3.559 3.559 0 0 0 391.152 55.873 A 7.941 7.941 0 0 0 392.792 56.047 A 7.72 7.72 0 0 0 394.814 55.776 A 17.195 17.195 0 0 0 398.159 54.474 A 19.061 19.061 0 0 0 398.379 54.36 Q 400.137 53.432 401.699 52.26 A 38.367 38.367 0 0 1 403.614 50.91 A 31.362 31.362 0 0 1 404.727 50.209 L 405.41 50.893 Q 409.805 48.451 412.686 44.985 Q 415.566 41.518 418.203 37.416 A 2.877 2.877 0 0 1 417.821 37.064 Q 417.349 36.535 417.422 35.951 A 38.12 38.12 0 0 1 417.582 35.558 Q 417.655 35.382 417.737 35.188 A 74.903 74.903 0 0 1 417.91 34.78 Q 418.112 34.31 418.267 33.932 A 36.777 36.777 0 0 0 418.398 33.608 Q 419.375 30.678 419.863 28.139 Q 421.133 22.866 421.67 17.543 A 166.864 166.864 0 0 0 422.402 6.85 Z M 114.102 54.604 L 110.879 53.92 A 12.669 12.669 0 0 1 109.969 54.653 Q 109.475 55.016 108.897 55.379 A 21.226 21.226 0 0 1 108.73 55.483 Q 107.461 56.264 106.24 57.143 Q 105.02 58.022 104.141 59.047 A 4.599 4.599 0 0 0 103.066 61.44 A 6.372 6.372 0 0 0 101.803 61.786 Q 100.547 62.285 99.941 63.295 A 15.819 15.819 0 0 0 98.707 65.869 A 18.024 18.024 0 0 0 98.477 66.518 Q 97.891 68.276 97.207 69.985 A 5.165 5.165 0 0 1 95.163 72.431 A 6.624 6.624 0 0 1 94.766 72.67 Q 94.355 72.944 93.992 73.026 A 1.364 1.364 0 0 1 93.691 73.061 A 0.023 0.023 0 0 1 93.7 73.062 Q 93.749 73.084 93.105 73.451 A 7.565 7.565 0 0 0 91.311 75.314 A 8.561 8.561 0 0 0 91.25 75.405 Q 90.469 76.576 89.932 77.944 A 40.174 40.174 0 0 0 88.955 80.727 A 150.287 150.287 0 0 1 88.528 82.082 A 114.342 114.342 0 0 1 88.125 83.315 Q 86.868 83.494 86.189 83.839 A 2.631 2.631 0 0 0 86.074 83.901 Q 85.446 84.26 85.271 84.66 A 0.847 0.847 0 0 0 85.244 84.731 A 1.248 1.248 0 0 0 85.182 85.081 Q 85.171 85.39 85.293 85.756 Q 85.475 86.301 85.825 86.93 A 9.988 9.988 0 0 0 85.879 87.026 A 17.597 17.597 0 0 1 86.256 87.618 Q 86.448 87.933 86.651 88.29 A 29.552 29.552 0 0 1 86.709 88.393 A 11.428 11.428 0 0 1 87.346 89.711 A 10.301 10.301 0 0 1 87.441 89.955 A 5.457 5.457 0 0 1 87.766 91.31 A 5.053 5.053 0 0 1 87.783 91.518 A 2.264 2.264 0 0 1 87.788 91.659 Q 87.788 92.279 87.442 92.836 A 2.738 2.738 0 0 1 87.344 92.983 Q 88.647 94.007 89.862 93.477 A 2.482 2.482 0 0 0 89.98 93.422 A 16.79 16.79 0 0 0 92.053 92.199 A 15.278 15.278 0 0 0 92.324 92.006 Q 92.715 91.713 93.154 91.371 A 3.836 3.836 0 0 1 94.021 90.859 A 3.594 3.594 0 0 1 94.082 90.834 Q 94.946 91.022 95.752 91.022 A 6.202 6.202 0 0 0 98.184 90.541 Q 100.039 89.76 101.602 88.393 A 42.632 42.632 0 0 0 104.629 85.463 A 30.308 30.308 0 0 1 106.46 83.663 A 24.839 24.839 0 0 1 107.559 82.729 L 106.777 81.948 Q 108.47 81.477 109.212 80.69 A 2.518 2.518 0 0 0 109.268 80.629 Q 110 79.799 110.195 78.725 A 6.199 6.199 0 0 0 110.293 77.614 Q 110.293 77.148 110.229 76.658 A 8.236 8.236 0 0 0 110.195 76.43 A 28.598 28.598 0 0 1 109.965 74.6 A 33.376 33.376 0 0 1 109.902 73.842 Q 109.805 73.061 109.854 72.328 A 4.991 4.991 0 0 1 110.029 71.322 A 6.106 6.106 0 0 1 110.195 70.815 A 8.394 8.394 0 0 1 109.797 69.178 Q 109.732 68.695 109.732 68.221 A 6.696 6.696 0 0 1 109.951 66.518 Q 110.488 64.467 111.416 62.563 A 139.727 139.727 0 0 0 113.223 58.705 A 9.884 9.884 0 0 0 114.102 54.604 Z M 281.777 54.604 L 278.555 53.92 A 12.669 12.669 0 0 1 277.645 54.653 Q 277.151 55.016 276.573 55.379 A 21.226 21.226 0 0 1 276.406 55.483 Q 275.137 56.264 273.916 57.143 Q 272.695 58.022 271.816 59.047 A 4.599 4.599 0 0 0 270.742 61.44 A 6.372 6.372 0 0 0 269.479 61.786 Q 268.223 62.285 267.617 63.295 A 15.819 15.819 0 0 0 266.382 65.869 A 18.024 18.024 0 0 0 266.152 66.518 Q 265.566 68.276 264.883 69.985 A 5.165 5.165 0 0 1 262.839 72.431 A 6.624 6.624 0 0 1 262.441 72.67 Q 262.031 72.944 261.668 73.026 A 1.364 1.364 0 0 1 261.367 73.061 A 0.023 0.023 0 0 1 261.376 73.062 Q 261.425 73.084 260.781 73.451 A 7.565 7.565 0 0 0 258.987 75.314 A 8.561 8.561 0 0 0 258.926 75.405 Q 258.145 76.576 257.607 77.944 A 40.174 40.174 0 0 0 256.631 80.727 A 150.287 150.287 0 0 1 256.204 82.082 A 114.342 114.342 0 0 1 255.801 83.315 Q 254.544 83.494 253.865 83.839 A 2.631 2.631 0 0 0 253.75 83.901 Q 253.122 84.26 252.947 84.66 A 0.847 0.847 0 0 0 252.92 84.731 A 1.248 1.248 0 0 0 252.858 85.081 Q 252.847 85.39 252.969 85.756 Q 253.15 86.301 253.501 86.93 A 9.988 9.988 0 0 0 253.555 87.026 A 17.597 17.597 0 0 1 253.932 87.618 Q 254.124 87.933 254.327 88.29 A 29.552 29.552 0 0 1 254.385 88.393 A 11.428 11.428 0 0 1 255.022 89.711 A 10.301 10.301 0 0 1 255.117 89.955 A 5.457 5.457 0 0 1 255.442 91.31 A 5.053 5.053 0 0 1 255.459 91.518 A 2.264 2.264 0 0 1 255.463 91.659 Q 255.463 92.279 255.117 92.836 A 2.738 2.738 0 0 1 255.02 92.983 Q 256.323 94.007 257.538 93.477 A 2.482 2.482 0 0 0 257.656 93.422 A 16.79 16.79 0 0 0 259.728 92.199 A 15.278 15.278 0 0 0 260 92.006 Q 260.391 91.713 260.83 91.371 A 3.836 3.836 0 0 1 261.697 90.859 A 3.594 3.594 0 0 1 261.758 90.834 Q 262.622 91.022 263.428 91.022 A 6.202 6.202 0 0 0 265.859 90.541 Q 267.715 89.76 269.277 88.393 A 42.632 42.632 0 0 0 272.305 85.463 A 30.308 30.308 0 0 1 274.135 83.663 A 24.839 24.839 0 0 1 275.234 82.729 L 274.453 81.948 Q 276.146 81.477 276.888 80.69 A 2.518 2.518 0 0 0 276.943 80.629 Q 277.676 79.799 277.871 78.725 A 6.199 6.199 0 0 0 277.969 77.614 Q 277.969 77.148 277.904 76.658 A 8.236 8.236 0 0 0 277.871 76.43 A 28.598 28.598 0 0 1 277.641 74.6 A 33.376 33.376 0 0 1 277.578 73.842 Q 277.48 73.061 277.529 72.328 A 4.991 4.991 0 0 1 277.705 71.322 A 6.106 6.106 0 0 1 277.871 70.815 A 8.394 8.394 0 0 1 277.473 69.178 Q 277.408 68.695 277.408 68.221 A 6.696 6.696 0 0 1 277.627 66.518 Q 278.164 64.467 279.092 62.563 A 139.727 139.727 0 0 0 280.898 58.705 A 9.884 9.884 0 0 0 281.777 54.604 Z M 340.273 62.026 L 340.273 62.221 L 340.176 62.221 Q 335.195 66.03 330.947 70.571 A 163.7 163.7 0 0 1 322.012 79.408 L 321.133 78.53 A 3.704 3.704 0 0 0 320.631 79.375 A 2.992 2.992 0 0 0 320.4 80.385 A 39.137 39.137 0 0 0 320.356 81.682 A 33.319 33.319 0 0 0 320.352 82.241 Q 320.352 83.119 320.156 83.901 Q 320.005 84.506 319.385 85.052 A 4.558 4.558 0 0 1 318.984 85.366 L 318.691 85.561 Q 319.027 86.734 319.614 87.152 A 1.276 1.276 0 0 0 319.814 87.27 A 3.169 3.169 0 0 0 321.171 87.569 A 3.507 3.507 0 0 0 321.377 87.563 A 24.708 24.708 0 0 0 322.964 87.419 A 23.315 23.315 0 0 0 322.988 87.416 A 2.516 2.516 0 0 1 323.207 87.398 Q 323.84 87.375 324.258 87.709 A 0.9 0.9 0 0 1 324.596 88.134 A 1.226 1.226 0 0 1 324.648 88.295 A 3.855 3.855 0 0 1 324.708 88.574 Q 324.733 88.72 324.742 88.848 A 1.957 1.957 0 0 1 324.746 88.979 L 325.771 88.979 A 6.565 6.565 0 0 0 326.587 88.926 A 7.658 7.658 0 0 0 326.895 88.881 Q 327.911 88.696 329.059 88.818 A 9.276 9.276 0 0 1 329.189 88.832 Q 330.128 88.945 330.461 89.78 A 2.477 2.477 0 0 1 330.605 90.346 A 176.886 176.886 0 0 0 334.353 88.795 A 193.206 193.206 0 0 0 334.609 88.686 A 7.355 7.355 0 0 0 337.93 85.854 L 338.613 86.537 A 0.311 0.311 0 0 0 338.668 86.533 Q 338.698 86.527 338.722 86.516 A 0.145 0.145 0 0 0 338.76 86.489 Q 338.8 86.448 338.874 86.441 A 0.343 0.343 0 0 1 338.906 86.44 A 9.801 9.801 0 0 0 342.184 83.177 A 12.276 12.276 0 0 0 342.764 82.143 A 24.598 24.598 0 0 0 344.681 76.813 A 27.671 27.671 0 0 0 344.863 75.991 Q 345.547 72.67 345.693 69.35 Q 345.84 66.03 345.84 63.491 A 9.412 9.412 0 0 0 344.881 63.167 A 10.276 10.276 0 0 0 344.814 63.149 A 4.063 4.063 0 0 1 343.789 62.709 Q 342.98 62.17 342.253 61.879 A 5.964 5.964 0 0 0 342.129 61.83 A 1.762 1.762 0 0 0 341.533 61.721 Q 341.043 61.713 340.463 61.945 A 4.414 4.414 0 0 0 340.273 62.026 Z M 535.098 96.303 L 537.246 94.838 A 1.563 1.563 0 0 1 537.873 95.412 A 1.85 1.85 0 0 1 537.881 95.424 A 0.861 0.861 0 0 1 538.016 95.888 Q 538.016 96.086 537.93 96.303 Q 538.711 95.522 539.688 95.082 Q 540.664 94.643 541.689 94.399 Q 542.715 94.155 543.74 93.959 A 10.84 10.84 0 0 0 545.742 93.373 A 10.532 10.532 0 0 0 546.528 93.774 Q 547.97 94.429 548.829 94.17 A 1.415 1.415 0 0 0 549.258 93.959 Q 550.332 93.178 551.016 91.616 A 203.922 203.922 0 0 1 551.724 90.016 A 235.82 235.82 0 0 1 552.48 88.344 A 3.95 3.95 0 0 1 553.276 87.173 A 3.479 3.479 0 0 1 555.02 86.244 L 554.336 85.561 A 37.023 37.023 0 0 0 557.314 81.313 A 8.683 8.683 0 0 0 558.542 76.775 Q 558.542 76.766 558.542 76.756 A 10.495 10.495 0 0 0 558.535 76.381 A 6.899 6.899 0 0 1 556.822 76.177 A 5.47 5.47 0 0 1 555.166 75.453 A 30.732 30.732 0 0 1 553.042 73.924 A 34.805 34.805 0 0 1 552.334 73.354 A 38.169 38.169 0 0 0 549.404 71.157 Q 547.891 70.131 545.742 69.936 A 14.329 14.329 0 0 1 543.837 72.004 A 15.88 15.88 0 0 1 543.691 72.133 A 14.536 14.536 0 0 0 541.808 74.112 A 13.394 13.394 0 0 0 541.641 74.33 Q 540.762 75.502 540.42 76.869 A 3.568 3.568 0 0 0 540.316 77.738 Q 540.316 78.772 540.859 79.994 A 6.883 6.883 0 0 0 539.289 81.009 A 5.229 5.229 0 0 0 537.832 83.071 A 16.138 16.138 0 0 0 536.939 86.407 A 18.757 18.757 0 0 0 536.807 87.416 A 227.979 227.979 0 0 0 536.367 92.104 A 10.486 10.486 0 0 1 535.78 94.843 A 9.226 9.226 0 0 1 535.098 96.303 Z M 444.668 36.635 L 449.551 30.971 Q 450.723 31.362 451.406 31.948 A 5.921 5.921 0 0 1 452.578 33.315 A 25.931 25.931 0 0 1 453.506 34.926 A 18.494 18.494 0 0 0 454.112 35.983 A 22.054 22.054 0 0 0 454.531 36.635 A 4.589 4.589 0 0 0 453.708 37.046 Q 453.261 37.334 452.987 37.698 A 2.113 2.113 0 0 0 452.578 38.686 A 15.894 15.894 0 0 0 452.422 40.936 A 17.47 17.47 0 0 0 452.432 41.518 Q 452.468 42.616 452.368 43.605 A 12.753 12.753 0 0 1 452.285 44.252 A 1.727 1.727 0 0 1 451.398 45.515 Q 450.967 45.771 450.332 45.912 A 10.705 10.705 0 0 0 448.812 43.909 A 12.021 12.021 0 0 0 448.623 43.715 A 117.538 117.538 0 0 1 446.621 41.664 Q 445.645 40.639 445.059 39.467 A 4.126 4.126 0 0 1 444.671 38.195 Q 444.581 37.566 444.647 36.841 A 7.528 7.528 0 0 1 444.668 36.635 Z M 559.373 66.859 A 9.95 9.95 0 0 0 559.219 68.569 A 1.328 1.328 0 0 1 559.188 68.617 Q 559.004 68.897 558.683 69.074 A 2.099 2.099 0 0 1 558.242 69.252 A 4.075 4.075 0 0 1 557.117 69.408 A 4.374 4.374 0 0 1 556.826 69.399 Q 556.094 69.35 555.41 69.106 A 6.279 6.279 0 0 1 555.058 68.969 Q 554.846 68.878 554.67 68.782 A 2.81 2.81 0 0 1 554.336 68.569 Q 554.384 68.303 554.382 68.061 A 1.799 1.799 0 0 0 553.896 66.811 Q 553.262 66.127 552.578 65.492 A 8.448 8.448 0 0 1 552.493 65.413 A 7.633 7.633 0 0 1 551.406 64.125 Q 550.918 63.393 551.406 62.221 Q 552.062 62.352 552.61 62.288 A 2.449 2.449 0 0 0 553.799 61.83 A 6.346 6.346 0 0 0 554.138 61.562 A 6.868 6.868 0 0 0 555.41 60.121 L 556.777 58.071 A 4.91 4.91 0 0 1 558.535 56.459 Q 559.219 56.972 559.669 57.541 A 3.936 3.936 0 0 1 560.439 59.096 A 7.106 7.106 0 0 1 560.624 60.716 Q 560.624 61.428 560.488 62.172 A 29.302 29.302 0 0 1 560.47 62.273 A 31.763 31.763 0 0 1 559.707 65.444 A 12.838 12.838 0 0 0 559.373 66.859 Z" vector-effect="non-scaling-stroke"/></g></svg>